<?xml version="1.0" standalone="no"?>
<!DOCTYPE svg PUBLIC "-//W3C//DTD SVG 20010904//EN"
 "http://www.w3.org/TR/2001/REC-SVG-20010904/DTD/svg10.dtd">
<svg version="1.0" xmlns="http://www.w3.org/2000/svg"
 width="1024.000000pt" height="1024.000000pt" viewBox="0 0 1024.000000 1024.000000"
 preserveAspectRatio="xMidYMid meet">
<metadata>
Created by potrace 1.14, written by Peter Selinger 2001-2017
</metadata>
<g transform="translate(0.000000,1024.000000) scale(0.100000,-0.100000)"
fill="#000000" stroke="none">
<path d="M6019 9845 c-2 -1 -31 -5 -64 -9 -33 -3 -94 -12 -135 -21 -41 -8 -88
-17 -104 -20 -15 -2 -34 -9 -40 -15 -7 -5 -15 -7 -18 -4 -3 3 -23 -2 -44 -11
-22 -9 -41 -16 -44 -16 -16 0 -57 -13 -69 -23 -8 -6 -17 -10 -20 -10 -3 1 -16
-2 -29 -7 -13 -5 -27 -9 -31 -9 -4 0 -22 -7 -40 -16 -17 -9 -37 -17 -44 -18
-7 -1 -52 -22 -102 -46 -49 -24 -93 -42 -97 -42 -5 1 -8 -3 -8 -9 0 -5 -4 -7
-10 -4 -5 3 -10 3 -10 -2 0 -4 -29 -21 -65 -38 -36 -16 -65 -33 -65 -36 0 -4
-15 -12 -32 -20 -18 -7 -35 -16 -38 -19 -3 -4 -41 -26 -84 -51 -44 -24 -100
-56 -125 -71 -25 -15 -58 -33 -73 -40 -16 -7 -28 -16 -28 -20 0 -4 -5 -8 -10
-8 -8 0 -95 -48 -180 -100 -8 -5 -31 -17 -50 -27 -19 -9 -37 -20 -40 -23 -3
-4 -36 -24 -75 -45 -38 -22 -71 -43 -73 -47 -2 -4 -8 -8 -13 -8 -5 0 -53 -25
-107 -57 -53 -31 -108 -63 -122 -70 -14 -8 -38 -23 -55 -33 -16 -11 -43 -26
-60 -34 -16 -9 -50 -27 -75 -42 -25 -15 -58 -35 -75 -44 -16 -9 -65 -38 -108
-64 -43 -25 -83 -46 -88 -46 -5 0 -9 -4 -9 -9 0 -5 -10 -13 -21 -16 -18 -6
-74 -37 -161 -90 -64 -39 -174 -99 -177 -96 -2 1 -7 -1 -10 -7 -3 -5 -76 -49
-161 -97 -85 -49 -156 -93 -158 -97 -2 -4 -10 -8 -18 -8 -8 0 -20 -5 -27 -11
-7 -6 -38 -25 -69 -42 -50 -28 -348 -201 -403 -234 -11 -7 -26 -15 -34 -19
-13 -7 -154 -89 -276 -160 -22 -13 -53 -31 -70 -39 -16 -8 -39 -21 -50 -28
-72 -45 -126 -77 -129 -77 -3 0 -31 -16 -64 -35 l-59 -36 -79 47 c-43 26 -119
69 -169 97 -49 28 -92 54 -93 59 -2 4 -9 8 -14 8 -6 0 -47 21 -90 46 -43 26
-80 45 -82 43 -2 -2 -14 -24 -27 -49 -13 -25 -26 -47 -29 -50 -3 -3 -12 -18
-20 -35 -8 -16 -18 -32 -21 -35 -3 -3 -21 -34 -41 -70 -19 -36 -42 -77 -50
-90 -33 -51 -69 -116 -75 -132 -3 -10 -10 -18 -15 -18 -5 0 -6 -4 -3 -10 3 -5
2 -10 -3 -10 -5 0 -12 -8 -16 -17 -3 -10 -19 -40 -36 -68 -16 -27 -34 -59 -40
-70 -5 -11 -14 -27 -20 -35 -18 -29 -90 -152 -90 -155 0 -2 -24 -43 -52 -92
-29 -48 -59 -100 -68 -116 -19 -34 -138 -241 -162 -282 -10 -16 -28 -49 -40
-72 -12 -24 -26 -43 -30 -43 -4 0 -8 -9 -8 -20 0 -11 -4 -20 -10 -20 -5 0 -10
-4 -10 -9 0 -5 -22 -46 -49 -90 -27 -44 -52 -89 -56 -100 -3 -12 -12 -27 -19
-33 -6 -7 -22 -32 -34 -55 l-22 -43 33 -16 c17 -9 39 -22 47 -29 8 -8 18 -14
23 -14 4 0 51 -26 105 -57 53 -31 111 -64 127 -73 17 -9 32 -18 35 -21 5 -5
36 -23 100 -57 19 -10 40 -24 48 -30 7 -7 20 -13 28 -13 8 0 14 -4 14 -9 0 -5
8 -11 18 -14 9 -4 40 -20 67 -37 28 -17 57 -33 65 -37 8 -3 23 -13 33 -21 9
-8 17 -11 17 -6 0 5 4 4 8 -1 9 -13 220 -135 233 -135 5 0 9 -4 9 -10 0 -5 4
-10 10 -10 5 0 33 -14 62 -31 29 -18 78 -45 108 -62 30 -16 62 -35 70 -41 8
-6 35 -22 60 -35 25 -13 52 -30 61 -37 8 -8 18 -14 21 -14 5 0 401 -228 533
-307 22 -13 56 -31 75 -41 19 -9 36 -20 38 -24 2 -5 8 -8 12 -8 5 0 50 -25
100 -55 50 -30 95 -55 100 -55 6 0 10 -5 10 -12 0 -6 3 -9 6 -5 4 3 25 -6 48
-21 22 -15 55 -34 71 -42 17 -8 32 -18 35 -21 6 -7 102 -62 160 -91 25 -13 47
-26 50 -29 3 -3 79 -47 170 -99 91 -52 167 -97 170 -100 3 -3 14 -10 25 -16
26 -14 130 -71 175 -97 19 -11 46 -27 60 -36 14 -9 50 -30 80 -45 30 -16 62
-34 70 -41 8 -7 35 -23 60 -35 25 -13 47 -25 50 -29 3 -3 19 -13 35 -21 17 -8
51 -27 76 -42 25 -16 50 -28 55 -28 6 0 9 123 9 291 0 184 3 296 10 304 5 7
156 97 335 200 399 231 389 225 420 242 14 8 42 24 62 36 21 12 61 35 90 51
29 15 60 34 69 42 9 8 19 11 22 7 4 -3 7 -1 7 5 0 7 6 12 14 12 8 0 16 3 18 8
3 6 30 22 123 71 16 9 35 21 42 28 7 6 23 15 36 19 12 4 24 10 27 13 9 12 105
66 113 63 4 -1 7 2 7 7 0 5 8 11 18 14 9 4 51 27 92 52 41 25 87 50 103 56 15
6 27 15 27 20 0 5 4 9 9 9 4 0 59 29 120 65 62 36 115 65 118 65 4 0 14 6 22
14 9 8 39 26 66 41 69 36 109 59 115 65 6 6 39 25 93 53 23 11 44 23 47 26 5
6 21 15 88 52 20 11 51 29 67 39 17 10 41 25 55 33 67 36 370 212 403 233 20
13 37 21 37 17 0 -5 4 -3 8 2 9 14 218 135 232 135 5 0 10 3 10 8 0 4 23 18
50 31 28 14 50 29 50 34 0 4 5 5 10 2 6 -3 10 -1 10 4 0 6 4 11 10 11 5 0 47
22 92 49 46 27 99 58 118 69 186 106 287 164 300 172 26 16 165 95 175 99 6 2
12 7 15 10 11 13 129 71 144 71 9 0 16 4 16 8 0 12 227 88 325 108 81 17 222
23 299 13 115 -16 152 -25 226 -57 19 -9 38 -15 42 -14 3 1 12 -5 18 -13 7 -8
17 -15 22 -15 20 0 125 -80 175 -133 52 -55 121 -154 145 -208 7 -16 16 -29
20 -29 5 0 8 -8 8 -18 0 -10 4 -22 10 -28 5 -5 11 -18 13 -29 2 -11 7 -29 11
-40 30 -80 53 -171 62 -245 3 -30 10 -77 14 -105 8 -51 5 -346 -4 -420 -3 -22
-8 -62 -11 -90 -4 -27 -13 -81 -20 -120 -8 -38 -16 -84 -20 -102 -3 -18 -10
-44 -15 -59 -6 -15 -8 -29 -5 -32 2 -3 0 -11 -6 -19 -6 -7 -9 -13 -6 -13 4 0
0 -18 -8 -40 -8 -22 -15 -44 -16 -48 -9 -42 -73 -228 -81 -239 -5 -7 -7 -16
-4 -22 3 -5 2 -11 -4 -13 -5 -1 -11 -12 -13 -23 -2 -18 -14 -45 -78 -181 -10
-22 -19 -46 -19 -52 0 -7 -4 -12 -9 -12 -5 0 -12 -14 -16 -30 -4 -17 -12 -36
-18 -43 -7 -6 -22 -32 -34 -57 -33 -66 -70 -132 -90 -158 -9 -13 -18 -31 -19
-39 -2 -9 -6 -19 -11 -22 -4 -3 -35 -46 -67 -96 -57 -86 -192 -275 -205 -285
-4 -3 -20 -24 -37 -47 -17 -24 -34 -40 -37 -36 -4 3 -7 1 -7 -5 0 -18 -158
-185 -281 -297 -117 -107 -309 -248 -434 -320 -27 -15 -52 -31 -55 -34 -3 -3
-12 -7 -20 -9 -8 -2 -22 -9 -30 -17 -8 -7 -39 -26 -69 -41 -29 -16 -65 -35
-80 -43 -14 -8 -27 -18 -29 -23 -2 -4 -8 -8 -14 -8 -5 0 -22 -9 -38 -20 -15
-11 -30 -17 -34 -13 -3 3 -6 2 -6 -4 0 -6 -13 -16 -30 -22 -16 -5 -30 -15 -30
-20 0 -6 -9 -11 -19 -11 -11 0 -23 -5 -26 -10 -4 -6 -21 -17 -38 -25 -18 -8
-41 -20 -52 -27 -42 -28 -122 -74 -150 -88 -16 -8 -32 -17 -35 -20 -3 -3 -95
-57 -205 -119 -110 -63 -208 -121 -217 -129 -10 -8 -18 -11 -18 -7 0 5 -10 -1
-23 -13 -13 -12 -27 -19 -30 -15 -4 3 -7 1 -7 -5 0 -7 -5 -12 -11 -12 -6 0
-43 -19 -82 -43 -40 -24 -79 -47 -87 -50 -8 -4 -37 -21 -65 -37 -27 -17 -57
-33 -65 -37 -8 -3 -22 -12 -30 -18 -8 -7 -35 -24 -60 -37 -25 -14 -63 -36 -85
-48 -22 -13 -56 -33 -76 -44 -48 -27 -186 -107 -218 -126 -32 -18 -139 -80
-166 -96 -29 -16 -77 -44 -180 -104 -49 -29 -115 -66 -145 -83 -30 -17 -63
-36 -74 -43 -16 -11 -24 -9 -58 12 -21 14 -50 29 -63 34 -14 5 -25 15 -25 21
0 7 -3 10 -6 7 -5 -6 -86 40 -295 163 -36 22 -68 39 -73 39 -4 0 -12 5 -19 10
-22 19 -146 90 -156 90 -6 0 -11 4 -11 9 0 5 -16 15 -35 22 -19 7 -35 17 -35
21 0 4 -4 8 -9 8 -6 0 -62 31 -126 69 -64 39 -119 71 -123 72 -4 1 -16 7 -27
14 -21 13 -267 155 -322 186 -30 17 -86 50 -128 76 -11 7 -39 22 -62 33 -24
12 -43 26 -43 31 0 6 -4 8 -8 5 -5 -3 -24 5 -43 18 -19 13 -61 38 -94 56 -33
18 -67 39 -76 46 -8 8 -19 14 -23 14 -3 0 -76 41 -162 90 -85 50 -176 103
-202 117 -26 14 -54 31 -62 37 -8 7 -26 17 -40 24 -14 7 -32 16 -40 22 -41 27
-173 100 -180 100 -5 0 -10 3 -12 8 -1 4 -21 17 -44 29 l-40 22 0 -606 1 -607
50 -29 c81 -48 148 -86 175 -99 14 -7 27 -15 30 -18 3 -3 16 -11 30 -19 14 -8
78 -45 143 -83 66 -37 123 -68 128 -68 5 0 9 -4 9 -8 0 -9 40 -30 51 -28 4 0
15 -6 25 -15 11 -9 46 -31 79 -50 33 -19 69 -39 80 -46 11 -7 31 -17 45 -23
13 -6 27 -14 30 -18 3 -4 20 -15 38 -24 17 -10 47 -26 64 -35 18 -10 35 -20
38 -23 10 -10 153 -90 161 -90 5 0 9 -5 9 -12 0 -6 3 -9 6 -5 4 3 21 -5 40
-19 18 -14 34 -24 36 -23 2 1 21 -9 43 -23 22 -14 56 -33 75 -43 19 -9 43 -24
53 -33 9 -8 17 -12 17 -9 0 4 31 -14 69 -38 38 -25 77 -45 85 -45 9 0 16 -3
16 -8 0 -4 17 -16 38 -27 20 -11 39 -22 42 -25 6 -6 34 -22 95 -54 22 -12 59
-34 82 -49 24 -15 47 -27 51 -27 5 0 20 -8 33 -18 13 -10 44 -30 69 -43 25
-13 47 -27 48 -31 2 -5 7 -8 12 -8 5 0 48 -23 97 -51 121 -71 151 -88 203
-117 25 -14 57 -34 73 -44 15 -11 27 -16 27 -11 0 4 4 3 8 -3 4 -6 33 -25 65
-42 52 -29 87 -33 87 -11 0 5 4 9 10 9 5 0 53 26 107 57 54 31 112 63 128 71
17 9 32 18 35 21 3 3 16 12 29 19 71 40 99 57 126 73 17 11 37 22 45 26 8 3
47 25 85 48 71 43 127 75 222 127 29 16 55 34 59 39 3 5 10 7 15 4 5 -4 9 -1
9 4 0 6 7 11 15 11 8 0 15 5 15 10 0 6 5 10 11 10 6 0 43 19 82 42 40 24 86
49 102 58 17 8 32 17 35 21 3 3 40 26 83 50 43 24 86 49 95 54 33 19 174 100
210 120 21 11 39 23 40 28 2 4 8 7 13 7 5 0 38 18 74 40 36 22 70 40 75 40 6
0 10 5 10 10 0 6 5 10 10 10 8 0 65 31 208 115 9 6 49 28 87 50 39 22 79 45
90 52 11 7 27 15 35 19 8 4 33 19 55 32 22 14 65 39 95 55 30 17 58 35 62 41
4 6 8 7 8 3 0 -5 13 1 29 12 16 12 34 21 40 21 6 0 11 5 11 10 0 6 5 10 11 10
6 0 43 20 83 44 39 25 76 46 81 48 24 6 360 238 411 283 7 6 24 19 38 29 15
11 37 29 50 40 13 12 46 39 72 61 26 22 70 61 97 88 28 26 52 47 53 47 7 0
248 246 324 329 47 52 93 102 103 112 9 11 17 21 17 24 0 3 10 16 23 28 12 12
38 42 57 67 18 25 38 50 45 55 6 6 22 26 35 45 13 19 27 37 30 40 4 3 26 32
50 65 24 33 47 62 52 63 4 2 8 10 8 17 0 8 6 18 13 22 7 4 33 40 57 78 25 39
47 72 51 75 8 7 183 289 204 330 10 18 24 40 31 48 8 7 14 18 14 24 0 5 9 22
19 37 27 37 248 480 266 531 3 10 25 61 43 103 10 23 31 74 47 112 15 39 33
84 40 100 7 17 24 66 39 110 15 44 32 89 36 100 10 21 60 188 65 214 2 9 4 17
5 19 2 1 3 5 4 10 1 4 5 16 9 27 3 11 9 31 11 45 3 14 21 88 40 164 19 77 33
143 30 148 -3 4 -1 8 4 8 5 0 9 6 10 13 4 44 11 92 13 95 1 1 3 11 4 22 1 11
4 21 5 23 2 1 4 16 5 32 2 17 5 44 8 60 5 27 9 59 22 165 20 160 26 514 12
699 -4 58 -9 107 -11 110 -2 3 -6 29 -10 56 -3 28 -13 84 -21 125 -9 41 -17
84 -19 95 -3 11 -7 30 -10 43 -3 12 -8 30 -10 40 -19 84 -122 336 -173 424
-18 31 -33 61 -33 67 0 6 -3 11 -7 11 -5 0 -16 12 -25 28 -77 124 -202 257
-328 348 -63 45 -228 144 -241 144 -5 0 -9 4 -9 9 0 5 -16 15 -35 22 -19 7
-35 16 -35 20 0 4 -8 9 -17 13 -10 3 -25 10 -33 16 -8 5 -82 48 -165 96 -221
127 -318 183 -335 194 -8 6 -22 13 -30 17 -8 3 -37 20 -65 37 -27 17 -63 38
-80 46 -16 8 -36 21 -43 28 -7 6 -20 12 -28 12 -8 0 -14 5 -14 10 0 6 -4 10
-9 10 -5 0 -87 45 -182 101 -96 56 -203 117 -239 137 -36 19 -67 38 -70 41 -3
3 -30 19 -60 35 -30 16 -71 40 -90 53 -19 13 -40 23 -47 23 -7 0 -13 5 -13 10
0 6 -5 10 -10 10 -6 0 -27 11 -48 23 -20 13 -57 35 -82 49 -25 14 -101 58
-170 98 -119 69 -191 110 -235 134 -11 6 -23 16 -27 21 -4 6 -8 6 -8 1 0 -5
-8 -2 -18 7 -10 9 -45 30 -77 48 -33 17 -67 38 -76 45 -8 8 -19 14 -22 14 -4
0 -37 19 -74 41 -38 23 -69 41 -71 40 -1 -1 -28 12 -60 28 -31 15 -75 34 -97
41 -22 7 -46 17 -53 23 -7 5 -15 7 -18 4 -4 -3 -29 3 -58 14 -28 12 -52 20
-54 19 -3 -3 -88 10 -115 17 -24 6 -343 14 -348 8z"/>
</g>
</svg>
