<?xml version="1.0" encoding="UTF-8" standalone="no"?>
<svg
   xmlns:dc="http://purl.org/dc/elements/1.1/"
   xmlns:cc="http://creativecommons.org/ns#"
   xmlns:rdf="http://www.w3.org/1999/02/22-rdf-syntax-ns#"
   xmlns:svg="http://www.w3.org/2000/svg"
   xmlns="http://www.w3.org/2000/svg"
   xmlns:sodipodi="http://sodipodi.sourceforge.net/DTD/sodipodi-0.dtd"
   xmlns:inkscape="http://www.inkscape.org/namespaces/inkscape"
   viewBox="0 0 481 337"
   version="1.1"
   id="svg346"
   sodipodi:docname="intropy.svg"
   width="481"
   height="337"
   inkscape:version="1.0.1 (3bc2e813f5, 2020-09-07)">
  <metadata
     id="metadata350">
    <rdf:RDF>
      <cc:Work
         rdf:about="">
        <dc:format>image/svg+xml</dc:format>
        <dc:type
           rdf:resource="http://purl.org/dc/dcmitype/StillImage" />
        <dc:title></dc:title>
      </cc:Work>
    </rdf:RDF>
  </metadata>
  <sodipodi:namedview
     pagecolor="#ffffff"
     bordercolor="#666666"
     borderopacity="1"
     objecttolerance="10"
     gridtolerance="10"
     guidetolerance="10"
     inkscape:pageopacity="0"
     inkscape:pageshadow="2"
     inkscape:window-width="1920"
     inkscape:window-height="1017"
     id="namedview348"
     showgrid="false"
     showguides="false"
     inkscape:zoom="1.6726837"
     inkscape:cx="414.93411"
     inkscape:cy="203.45045"
     inkscape:window-x="-8"
     inkscape:window-y="-8"
     inkscape:window-maximized="1"
     inkscape:current-layer="Layer_2" />
  <defs
     id="defs4">
    <style
       id="style2">.cls-1{fill:#72b8e6;}.cls-2{fill:#f9fafa;}.cls-3{fill:#4b5f81;}.cls-4{fill:#486084;}.cls-5{fill:#476690;}.cls-6{fill:#4b5b79;}.cls-7{fill:#4e607e;}.cls-8{fill:#5ca5da;}.cls-9{fill:#f4f5f7;}.cls-10{fill:#f7f8fa;}.cls-11{fill:#6abcd7;}.cls-12{fill:#d3e7f0;}.cls-13{fill:#d3dbec;}.cls-14{fill:#e9ecf0;}.cls-15{fill:#a5bed4;}.cls-16{fill:#68799b;}.cls-17{fill:#3e5071;}.cls-18{fill:#425973;}.cls-19{fill:#3d516f;}.cls-20{fill:#8898b9;}.cls-21{fill:#586269;}.cls-22{fill:#7a6753;}.cls-23{fill:#e4a753;}.cls-24{fill:#d98e91;}.cls-25{fill:#e7de99;}.cls-26{fill:#f1d862;}.cls-27{fill:#3b74a5;}.cls-28{fill:#fcd853;}.cls-29{fill:#fed146;}.cls-30{fill:#eff1e0;}</style>
  </defs>
  <g
     id="Layer_2"
     data-name="Layer 2">
    <g
       id="Layer_1-2"
       data-name="Layer 1">
      <path
         class="cls-2"
         d="M 599,337 V 1 H 0 C 0.17,0.67 0.31,0.07 0.5,0.05 c 1.33,-0.08 2.66,0 4,0 H 600 v 6.12 q 0,163.17 0,326.35 a 21.74,21.74 0 0 1 -1,4.48 z"
         id="path8" />
    </g>
    <path
       class="cls-1"
       d="M 481,337 H 0 V 1 h 481 z m -141.68,-140.57 -2,-1 c -16.05,-8 -32.89,-5.7 -50.3,-3.27 0,-7.09 0.56,-13.75 -0.17,-20.26 -0.64,-5.63 -1.89,-11.53 -4.4,-16.54 -5,-9.92 -17,-16.41 -26.07,-15.12 -2.21,16 2.66,32.65 -4.88,48.24 l -0.33,-4.67 c -0.74,-10.41 -3.9,-19.53 -13.58,-25.09 -8.35,-4.78 -17.41,-6 -26.91,-5.55 -4.52,0.21 -6.73,1.58 -6,6.42 0.16249,2.37723 0.16249,4.76277 0,7.14 -9,-2.94 -16.85,-3.34 -24.21,1.71 v 0 c -8.05,2 -2.65,9.51 -5.4,13.59 -4.22,0.53 -8.41,0.63 -12.35,1.69 -3.98587,1.05284 -7.79862,2.67629 -11.32,4.82 -1.95,1.21 -4.37,4.16 -4.12,6 1,7.58 -2.4,10.9 -9.31,11.95 -0.78697,0.24965 -1.53445,0.60992 -2.22,1.07 l -4.23,8.66 -1.78,0.58 -6.09,5.66 -1.89,0.5 c -3.4,-0.15 -3,2.29 -3,4.44 v 92.44 c 0.18234,1.19574 0.53949,2.35817 1.06,3.45 l 2.73,0.08 c 1.82,0.13 3.63,0.37 5.45,0.37 h 230.9 c 1.48,0 3,-0.25 4.43,-0.38 h 2.85 c 0.61,-1.56 1.73,-3.11 1.73,-4.67 0.12,-29.31 0,-58.62 0.24,-87.93 0,-5.36 -1.43,-8.57 -6.87,-9.45 v 0 c -0.21,-3.15 -2,-4.69 -5.06,-4.92 -0.12672,-0.15261 -0.32367,-0.22836 -0.52,-0.2 -1.1,-2.71 -2.21,-5.41 -3.31,-8.12 0.0328,-0.22647 -0.0411,-0.45537 -0.2,-0.62 -2.83548,-5.09628 -7.41126,-9.00113 -12.89,-11 z m -267.77,68.68 -1.72,1.17 c -0.41,6.27 -0.87,12.53 -1.08,18.8 0,0.29 2.34,1.1 3.45,0.9 2.73,-0.48 5.36,-1.92 8.06,-2 3.53,-0.14 7.1,0.63 11.54,1.11 0,-6.57 0,-12.94 -0.07,-19.31 0,-0.56 -0.92,-1.46 -1.55,-1.62 -6.3,-1.61 -12.62,-3.05 -18.63,0.95 z M 298.33,77.73 C 298.41638,48.3738 274.51553,24.597221 245.1602,24.836584 215.80487,25.075947 192.29492,49.239112 192.86,78.59 c 0.13,28.8 24.35,52.06 54,51.83 28.26,-0.22 51.65,-24.15 51.47,-52.69 z M 138,180.88 v 0 -7 c 0,-10.83 0,-10.83 -10.83,-12.36 -7.87,-1.11 -15.7,-1.14 -22.73,3 -2.08,1.23 -4.37,4.06 -4.51,6.29 -0.54,8.59 -0.22,17.24 -0.26,25.86 0,3.63 1.65,4.51 4.7,2.9 9.49,-5 19.28,-5.81 29.36,-2.11 3.35,1.24 4.22,-0.29 4.22,-3.21 z m 233.17,12.93 c 0.05,-9.71 -1.61,-11.5 -11.39,-12.36 -6.44,-0.57 -7.88,0.75 -7.9,7.29 0,2 0.18,4 0,5.94 -0.42,4.13 0.86,6.27 5.45,5.87 2.15271,-0.0529 4.30085,0.22368 6.37,0.82 7.46,1.71 7.45,1.75 7.48,-6.08 -0.06,-0.49 -0.06,-0.99 -0.05,-1.48 z m 43.11,53.39 c -0.0863,-1.33194 -0.0863,-2.66806 0,-4 0.41,-3.33 -0.89,-5.34 -4.17,-6.24 -4.61,-1.28 -9.17,-3.25 -13.86,-0.46 -0.52827,0.40035 -0.84789,1.01753 -0.87,1.68 0,4.78 -0.77,9.83 0.58,14.22 0.49,1.61 6,1.75 9.3,2.41 8.97,1.86 8.98,1.83 8.98,-7.61 z M 335.38,21.79 c -0.53,-4.1 -2.55,-4.23 -5,-2.79 -6.57,3.84 -13.16,7.69 -19.55,11.82 -1,0.66 -1.07,2.82 -1.57,4.28 1.57,0.24 3.54,1.2 4.65,0.6 6.41,-3.47 12.64,-7.26 18.85,-11.07 1.00692,-0.814082 1.88957,-1.770843 2.62,-2.84 z m -159.16,99.92 c -0.52286,-0.007 -1.04421,0.0573 -1.55,0.19 -7.48,4.23 -15,8.42 -22.37,12.82 -0.78,0.47 -0.77,2.24 -1.13,3.4 1.31,0.38 3,1.49 3.88,1 7.48,-3.84 14.86,-7.9 22.15,-12.1 0.78,-0.46 1.17,-2.34 1,-3.44 -0.13,-0.78 -1.47,-1.41 -1.98,-1.87 z m -24,-40.94 c 3.64968,0.145191 7.30438,0.105139 10.95,-0.12 1.51,-0.15 2.88,-1.62 4.32,-2.49 -1.38,-1.11 -2.72,-3.13 -4.14,-3.19 -7.3,-0.33 -14.62,-0.29 -21.92,0 -1.25,0 -2.45,1.79 -3.67,2.75 1.17,1 2.25,2.78 3.51,2.92 3.63177,0.237185 7.27361,0.28058 10.91,0.13 z m 182.18,0 v 0 c 4.14,0 8.28,0.18 12.4,-0.12 1.34458,-0.281171 2.45083,-1.232619 2.93,-2.52 0.13,-0.93 -1.42,-3 -2.27,-3 -8.26,-0.21 -16.53,-0.23 -24.78,0.07 -1.05,0 -2,2.16 -3,3.32 1.28,0.77 2.5,2.09 3.83,2.2 3.56,0.28 7.21,0.04 10.85,0.04 z M 179.46,34.18 c -1.53,-1.89 -2.06,-3 -3,-3.57 -6.67,-3.9 -13.36,-7.77 -20.18,-11.4 -1,-0.57 -2.77,0.13 -4.19,0.24 0.36,1.48 0.22,3.73 1.14,4.31 6.98,4.366667 14.10667,8.503333 21.38,12.41 0.9,0.46 2.84,-1.11 4.85,-1.99 z m 156.64,104 c -1.26,-1.9 -1.67,-3.19 -2.54,-3.72 -6.91,-4.22 -13.86,-8.37 -20.94,-12.29 -0.81,-0.44 -3.18,0.39 -3.62,1.25 -0.44,0.86 0.09,3.27 0.93,3.76 7.14,4.17333 14.39,8.15 21.75,11.93 0.89,0.41 2.51,-0.54 4.42,-0.98 z"
       id="path6"
       sodipodi:nodetypes="cccccccccccccccccssccccccccccscccssccccssccccccccccccccccscccccscccccccccccccccccccccccccccccccccccccccccccccccccccsccccccccccccccccccscccc" />
    <path
       class="cls-3"
       d="m 121.81,223 1.89,-0.5 c 1.31,-0.46 3,-0.59 3.87,-1.47 1.07,-1.06 1.5,-2.76 2.22,-4.19 l 1.78,-0.58 c 2.82,-0.07 4.94,-4.43 4.23,-8.66 a 8.71,8.71 0 0 1 2.22,-1.07 c 6.91,-1 10.34,-4.37 9.31,-11.95 -0.25,-1.84 2.17,-4.79 4.12,-6 a 42.78,42.78 0 0 1 11.32,-4.82 c 3.94,-1.06 8.13,-1.16 12.35,-1.69 2.75,-4.08 -2.65,-11.56 5.4,-13.59 0.76,1.71 1.51,3.41 2.26,5.12 -0.39,1.3 -0.79,2.6 -1.19,3.9 a 24,24 0 0 0 -1,4.73 q -0.09,34.64 0,69.29 a 23.94,23.94 0 0 0 0.95,4.72 l 5.94,-0.1 6.8,1.09 -12.25,6.65 -0.09,-0.05 -1.37,0.44 v 0 l -2,1 -2.47,0.73 c 0,-0.9 0,-1.79 0,-2.68 0.5,-0.41 1.43,-0.81 1.43,-1.22 q 0.12,-13.14 0,-26.28 c 0,-0.29 -0.94,-0.58 -1.44,-0.86 l -0.59,-1.7 c 0.12,-1.55 0.25,-3.1 0.38,-4.66 2.25,-3.31 2.51,-21.73 0.33,-25.07 -0.07,-0.11 -0.29,-0.15 -0.44,-0.22 -2.45,-1.78 -4.59,-1.26 -8.25,2 l -1.88,2.07 v 0 l -0.17,2.09 0.19,20.79 c 0.64,0.58 1.19,1.45 1.94,1.68 2,0.6 4.16,0.93 6.25,1.37 -2.39,1.11 -4.82,2.14 -7.17,3.33 -3.42,1.74 -5,0.75 -5,-3 0,-7.76 0,-15.53 0,-23.3 0,-5.83 2.16,-8.56 7.85,-10 a 8.46,8.46 0 0 0 3.15,-1 c 1.22,-1 2.69,-2.17 3,-3.53 0.5,-2.14 0.13,-4.49 0.13,-7 a 32.52,32.52 0 0 0 -21.34,4.6 l -2.09,3.42 q -0.37,7.81 -0.76,15.62 c 0,1 0,1.9 0,2.85 h -2.88 l -0.27,-1.6 h -0.46 c -0.19,2.29 -0.37,4.57 -0.55,6.86 -0.29,-3.19 -0.58,-6.38 -0.85,-9.43 -4.6,-0.69 -7.48,0.23 -7.41,5.07 l -1.43,-0.48 c 0,1.16 -0.07,2.31 -0.07,3.47 q 0,36.87 0,73.72 c 0,1.2 0.15,2.39 0.24,3.58 h 0.65 v -4.91 q 0,-33.37 0,-66.75 c 0,-1.8 0.29,-3.61 0.44,-5.41 0.1,1.81 0.3,3.63 0.3,5.44 q 0,34.38 0,68.76 v 6.86 c 33.83,-3.69 67.21,-8.29 100.37,2.36 A 49.85,49.85 0 0 0 231,292.68 c -15.43,-12.81 -33.44,-14.59 -52.26,-10.88 -10.5,2.07 -20.76,5.33 -31.62,8.18 0.14,-1.92 0.27,-3.53 0.39,-5.14 0.24,0.94 0.47,1.88 0.71,2.82 l 0.54,-0.09 v -7.41 h 2.88 c 0,0.35 0,0.71 0.07,1.06 l 3,0.77 h 0.28 c 2.42,-0.38 4.85,-0.67 7.24,-1.16 5.77,-1.18 11.52,-2.47 17.28,-3.69 4,-0.86 8.07,-1.68 12.11,-2.52 l 5,-0.07 c 0.57,0.53 1.08,1.44 1.72,1.54 7.1,1.09 14.21,2.05 21.33,3.05 h -0.05 l 4.26,1.93 17.73,12 -1.07,-4.89 c -0.29,-1.6 -0.28,-3.36 -1,-4.77 -1.42,-2.95 -0.81,-4.73 2.36,-5.58 v 0 q 1.36,2.58 2.71,5.16 c 0.35,-0.95 0.7,-1.9 1,-2.85 4.08,3 4.25,7.36 4.48,11.8 a 12.33,12.33 0 0 0 1.08,3.18 c 0.13,2.72 0.27,5.44 0.48,9.55 l 10.64,-18.48 3.19,-6 v 0 c 2.52,-3.11 4.92,-6.34 7.63,-9.27 1.15,-1.24 3,-1.88 4.48,-2.79 l 2.87,0.2 3.31,1.91 -0.31,0.89 -7.38,-0.54 -1.49,3.89 0.09,-0.07 c -2.53,0.2 -4.09,1 -2.24,3.77 l -2.92,6.74 c 1.13,1.37 2.55,2.35 2.68,3.48 0.09,0.8 -1.47,2.51 -2.42,2.61 -6.27,0.68 -6.06,6.34 -9,10.72 1.6,-0.31 2.35,-0.41 3.08,-0.61 a 144.51,144.51 0 0 1 48.95,-4.17 c 9.94,0.76 19.85,2 29.79,2.79 2,0.17 4.76,2 5.73,-1.66 a 22.89,22.89 0 0 0 1,-4.69 q 0.09,-36.18 0,-72.36 a 22.32,22.32 0 0 0 -1,-4.66 c 0.05,-8.18 -6,-11.66 -11.93,-15 -8.65,-4.75 -18.29,-5.32 -27.88,-5.92 l -2.68,0.09 -4.44,0.59 a 106.91,106.91 0 0 0 -11.19,0.35 c -1.88,0.24 -5.12,1.73 -5.1,2.6 0.05,2.44 1.47,4.85 2.36,7.27 0.52,1.24 1.71,3.39 1.46,3.57 -4.07,3 -1.83,6.79 -2,10.73 15,-1.92 29.48,-2 43.67,2.53 0.37,0.84 0.74,1.68 1.13,2.54 l -4.3,1.31 c -13.21,-2.78 -26.47,-3.8 -40.31,-1.14 0.11,2.16 0.21,4.15 0.23,4.7 l 36.25,3.57 c -3,0.68 -6,1.92 -9,1.93 -7.56,0 -15.12,-0.63 -22.68,-0.74 -1.5,0 -3,1.17 -4.52,1.8 l -1.13,2.12 c -1.28,3.26 -2.56,6.51 -4.11,10.43 l -2.62,-3.46 c 2.44,-13.81 0.4,-18.92 -10.34,-25.55 a 45.66,45.66 0 0 0 -7.38,-4 c -4.5,-1.75 -6.28,-4.75 -5.73,-9.49 a 61.72,61.72 0 0 0 0.05,-7.07 l -1.69,-0.25 q -1.68,6.24 -3.38,12.49 c -2.58,3.34 -2.64,6.66 0,10 0,3 0,6 0.05,9 -2.53,0.65 -4.67,1.74 -3.08,4.81 4.59,8.82 0.38,18.25 2.06,27.28 0.41,2.19 -0.08,4.54 0.13,6.79 0.28,3 0.25,5.76 -3.53,8.05 l -0.31,-6.05 c 0,-7 0.12,-14.08 0,-21.12 0,-1.59 -1,-3.16 -1.58,-4.74 a 18.32,18.32 0 0 0 -12.6,-12.26 c -3.14,-1 -6.36,-1.67 -9.54,-2.49 -4.42,-0.67 -8.83,-1.46 -13.27,-1.93 -0.88,-0.09 -1.89,1 -2.84,1.61 0,-16.44 0,-32.88 -0.11,-49.32 0,-1.8 -0.88,-3.6 -1.36,-5.4 -1.4,-1.5 -2.6,-4 -4.22,-4.31 -4.36,-0.81 -8.9,-0.69 -13.37,-0.94 l -7,-2.86 c 7.36,-5.05 15.24,-4.65 24.21,-1.71 a 52.35,52.35 0 0 0 0,-7.14 c -0.74,-4.84 1.47,-6.21 6,-6.42 9.5,-0.45 18.56,0.77 26.91,5.55 9.68,5.56 12.84,14.68 13.58,25.09 l 0.33,4.67 c 7.54,-15.59 2.67,-32.27 4.88,-48.24 9,-1.29 21.1,5.2 26.07,15.12 2.51,5 3.76,10.91 4.4,16.54 0.73,6.51 0.17,13.17 0.17,20.26 17.41,-2.43 34.25,-4.74 50.3,3.27 l 2,1 v 0 c 0.93,7.6 9.08,6.77 12.89,11 a 0.74,0.74 0 0 1 0.2,0.62 c 0.65,2.89 -2.28,7.24 3.31,8.12 a 0.57,0.57 0 0 1 0.52,0.2 c -0.22,3.61 1.38,5.33 5.06,4.92 v 0 c 4.5,3.25 5.58,8.07 5.67,13.14 0.07,3.45 -0.63,6.91 -0.64,10.36 q -0.14,39.27 -0.13,78.55 h -2.85 q -1.53,-2.1 -3.08,-4.19 c 0,-0.36 0,-0.72 0,-1.08 l 1.14,-5.08 a 25.89,25.89 0 0 0 0.73,-4.31 q 0.07,-37.77 0,-75.53 a 17.18,17.18 0 0 0 -0.27,-3.44 c -0.05,-0.2 -1.16,-0.17 -1.78,-0.25 a 27.34,27.34 0 0 0 -0.81,4.77 q -0.08,39.28 0,78.58 c -1.65,0.1 -3.3,0.28 -4.95,0.28 q -36.08,0 -72.15,0 c -8.29,0 -16.58,0 -24.87,0 -2.8,0 -5.27,0.48 -5.44,4.39 l 6.56,0.57 c 0,0.33 0,0.65 -0.06,1 -3.87,0.69 -7.72,1.78 -11.6,1.94 -2.44,0.11 -4.93,-1.18 -7.39,-1.84 l 5.09,-1.2 a 1.47,1.47 0 0 0 0,-1 c -1,-1.32 -2,-2.65 -3,-4 a 12.61,12.61 0 0 0 -3.27,-1 c -7.28,-0.08 -14.56,0 -21.85,0 q -39.44,0 -78.86,0 a 38.54,38.54 0 0 0 -5.77,0.88 h -4.05 c 0,-25.51 0.05,-51 0,-76.54 a 26.32,26.32 0 0 0 -1.07,-5.16 l -0.82,-2.52 h -0.76 l -0.42,5.57 q 0,12.91 0,25.81 V 310 c 0,1 0,2.06 0,3.09 v 2.95 a 4,4 0 0 0 0.51,0.58 0.62,0.62 0 0 0 0.3,0.64 l 1.33,0.9 4,1 c -1.51,0.63 -3,1.18 -4.5,1.92 -1.28,0.65 -2.44,1.52 -3.66,2.29 l -2.73,-0.08 c 0.27,-5.94 0.76,-11.88 0.78,-17.83 0.09,-25.24 0,-50.47 0.1,-75.71 a 43,43 0 0 1 1.05,-6.75 z m 12,83.11 a 28.63,28.63 0 0 0 0.82,-4.78 q 0.08,-35.56 0,-71.13 a 27.32,27.32 0 0 0 -0.84,-4.76 l -1.64,-2.07 c -0.49,1.64 -1.39,3.27 -1.4,4.91 q -0.13,34.85 0,69.71 c 0,1.71 0.74,3.41 1.13,5.12 z M 355.4,304 a 26.32,26.32 0 0 0 0.88,-4.74 q 0.09,-35 0,-70.07 a 27.19,27.19 0 0 0 -0.87,-4.74 c -3.69,-0.41 -1.95,2.47 -1.95,3.71 -0.12,24.38 -0.09,48.77 -0.07,73.15 0,1.4 0.22,2.79 0.44,5.45 0.97,-1.71 1.27,-2.23 1.57,-2.76 z m -87.92,3.57 c 2.33,2.25 4.64,2.32 6.95,0 h 4.05 c 1.44,0.51 2.87,1.48 4.3,1.49 q 30,0.14 60,0 c 1.47,0 2.94,-0.9 4.41,-1.39 -1.71,-0.78 -3.36,-2 -5.15,-2.27 a 231.46,231.46 0 0 0 -66.59,-0.84 c -2.75,0.32 -5.32,1.96 -7.97,3.01 z m -88.86,-4.63 -3,-0.07 -9.41,-1 v 0.91 l 1.81,0.46 -25.21,2.79 3,1.41 c 1.59,0.54 3.17,1.54 4.77,1.55 q 35.12,0.14 70.24,0 c 1.59,0 3.17,-1 4.76,-1.57 l 3.34,-0.52 0.09,-1 -24.27,-3.25 c -0.58,-0.52 -1.15,-1.48 -1.73,-1.49 -7.08,-0.1 -14.17,-0.14 -21.25,0 -1.11,0.06 -2.12,1.17 -3.14,1.78 z M 281.37,199.43 v -2 c 0.34,-0.72 1,-1.44 1,-2.17 0.06,-9.53 0.16,-19.07 -0.08,-28.6 0,-1.68 -1.63,-3.32 -2.5,-5 -3.52,-7.2 -8.75,-12.34 -17,-14.33 -0.34,1.55 -0.62,2.81 -0.9,4.06 l -1.13,-2.12 v 57.62 h 0.42 l 0.63,-8.26 c 0.16,1.8 0.64,3.64 0.4,5.38 -0.6,4.29 1.31,6.45 5.06,8.32 4.08,2 7.63,5.12 11.49,7.63 0.68,0.44 1.75,0.27 2.64,0.38 0.66,-0.88 1.84,-1.74 1.87,-2.64 a 74,74 0 0 0 -0.29,-10.21 c -0.33,-2.7 -1.08,-5.37 -1.61,-8.06 z m -36.5,-18.93 c -0.87,-8.88 -5.31,-15.6 -13.79,-18.13 -6.46,-1.93 -13.5,-1.93 -20.29,-2.78 -0.41,1.52 -1.19,3 -1.19,4.55 q -0.14,27.77 0,55.53 a 23,23 0 0 0 1,4.67 c 1.3,0.67 2.57,1.79 3.92,1.9 2.61,0.23 5.27,-0.27 7.9,-0.17 a 38.07,38.07 0 0 1 22.63,8.53 c 0.25,-1.41 0.41,-2.36 0.58,-3.32 a 10.44,10.44 0 0 0 0.81,-2.78 c 0.06,-14.91 0.09,-29.82 0,-44.73 -0.02,-1.09 -1.03,-2.18 -1.57,-3.27 z"
       id="path10" />
    <path
       class="cls-4"
       d="m 298.33,77.73 c 0.18,28.54 -23.21,52.47 -51.51,52.69 -29.61,0.23 -53.83,-23 -54,-51.83 A 52.74,52.74 0 1 1 298.29,77.73 Z M 205.59,50 l 0.13,-0.12 -2,3.16 0.09,-0.11 -0.4,0.89 c -0.51,1 -1,2.08 -1.52,3.12 -10.22,21.81 -3.92,50.68 21.88,63.83 a 48.19,48.19 0 0 0 61.6,-15.35 c 14.08,-20.34 10.92,-46.74 -7.48,-63.73 -11.6,-10.72 -26,-13.77 -40.63,-12 -8.12,1 -15.57,7.34 -23.33,11.27 l -1.33,1 h 0.15 l -3.11,3.08 -0.78,0.89 -2.28,2.89 v 0 z"
       id="path12" />
    <path
       class="cls-5"
       d="m 122.6,323.39 c 1.22,-0.77 2.38,-1.64 3.66,-2.29 1.45,-0.74 3,-1.29 4.5,-1.92 h 108.68 c 2.46,0.66 4.95,1.95 7.39,1.84 3.88,-0.16 7.73,-1.25 11.6,-1.94 v 0 c 1.43,3.4 7.25,3.44 11.07,0.08 l 21.89,0.91 h 25 c 5.32,0.3 10.64,0.66 16,0.81 0.68,0 1.39,-1.11 2.08,-1.71 h 19.83 c 1.38,2.67 2.76,2.68 4.13,0 h 1.92 q 1.54,2.08 3.08,4.19 c -1.47,0.13 -2.95,0.38 -4.43,0.38 q -115.44,0 -230.9,0 c -1.87,0.02 -3.68,-0.22 -5.5,-0.35 z"
       id="path14" />
    <path
       class="cls-6"
       d="m 138,180.88 v 13.43 c 0,2.92 -0.87,4.45 -4.22,3.21 -10.08,-3.7 -19.87,-2.89 -29.36,2.11 -3,1.61 -4.72,0.73 -4.7,-2.9 0,-8.62 -0.28,-17.27 0.26,-25.86 0.14,-2.23 2.43,-5.06 4.51,-6.29 7,-4.17 14.86,-4.14 22.73,-3 10.78,1.5 10.78,1.5 10.78,12.33 v 7 z m -4.56,9.4 c 0,-6.18 0.11,-13.1 -0.11,-20 a 4.19,4.19 0 0 0 -2.45,-3.1 c -7.85,-1.61 -15.77,-2.43 -23.34,1.16 -1.19,0.56 -2.72,2 -2.75,3.09 -0.25,7.2 -0.13,14.4 -0.13,20.77 z"
       id="path16" />
    <path
       class="cls-3"
       d="m 371.12,193.81 v 1.48 c 0,7.83 0,7.79 -7.48,6.08 a 21.13,21.13 0 0 0 -6.37,-0.82 c -4.59,0.4 -5.87,-1.74 -5.45,-5.87 0.2,-2 0,-4 0,-5.94 0,-6.54 1.46,-7.86 7.9,-7.29 9.8,0.86 11.46,2.65 11.4,12.36 z m -13.76,-7.12 c -1.36,8.77 0.13,10.33 8.37,9.19 1.52,-8.18 0.09,-9.8 -8.37,-9.19 z"
       id="path18" />
    <path
       class="cls-7"
       d="m 414.24,247.2 c 0,9.44 0,9.47 -9,7.64 -3.27,-0.66 -8.81,-0.8 -9.3,-2.41 -1.35,-4.39 -0.59,-9.44 -0.58,-14.22 a 2.2,2.2 0 0 1 0.87,-1.68 c 4.69,-2.79 9.25,-0.82 13.86,0.46 3.28,0.9 4.58,2.91 4.17,6.24 a 30.92,30.92 0 0 0 -0.02,3.97 z m -5.39,3.28 c 1.35,-9.45 0.08,-10.85 -8.39,-9.83 v 8.52 z"
       id="path20" />
    <path
       class="cls-4"
       d="m 71.55,265.11 c 6,-4 12.33,-2.56 18.63,-1 0.63,0.16 1.54,1.06 1.55,1.62 0.11,6.37 0.07,12.74 0.07,19.31 -4.44,-0.48 -8,-1.25 -11.54,-1.11 -2.7,0.11 -5.33,1.55 -8.06,2 -1.11,0.2 -3.46,-0.61 -3.45,-0.9 0.21,-6.27 0.67,-12.53 1.08,-18.8 l 2.07,14.87 16.51,-1.37 c 0,-3 0,-6.12 0,-9.24 0,-1 -0.19,-1.94 -0.33,-3.41 l -8.28,-1 z"
       id="path22" />
    <path
       class="cls-5"
       d="m 366.23,323.38 q 0,-39.27 0.13,-78.55 c 0,-3.45 0.71,-6.91 0.64,-10.36 -0.09,-5.07 -1.17,-9.89 -5.67,-13.14 5.44,0.88 6.91,4.09 6.87,9.45 -0.25,29.31 -0.12,58.62 -0.24,87.93 0.04,1.56 -1.12,3.11 -1.73,4.67 z"
       id="path24" />
    <path
       class="cls-5"
       d="m 121.81,223 a 43,43 0 0 0 -1.06,6.79 c -0.08,25.24 0,50.47 -0.1,75.71 0,5.95 -0.51,11.89 -0.78,17.83 a 12.34,12.34 0 0 1 -1.06,-3.45 q -0.09,-46.22 0,-92.44 c -0.04,-2.17 -0.4,-4.61 3,-4.44 z"
       id="path26" />
    <path
       class="cls-8"
       d="m 335.38,21.79 a 13.3,13.3 0 0 1 -2.64,2.84 c -6.21,3.81 -12.44,7.6 -18.85,11.07 -1.11,0.6 -3.08,-0.36 -4.65,-0.6 0.5,-1.46 0.55,-3.62 1.57,-4.28 6.39,-4.13 13,-8 19.55,-11.82 2.47,-1.44 4.49,-1.31 5.02,2.79 z"
       id="path28" />
    <path
       class="cls-8"
       d="m 176.22,121.71 c 0.51,0.46 1.85,1.09 2,1.91 0.17,1.1 -0.22,3 -1,3.44 -7.29,4.2 -14.67,8.26 -22.15,12.1 -0.88,0.45 -2.57,-0.66 -3.88,-1 0.36,-1.16 0.35,-2.93 1.13,-3.4 7.38,-4.4 14.89,-8.59 22.37,-12.82 a 5.82,5.82 0 0 1 1.53,-0.23 z"
       id="path30" />
    <path
       class="cls-8"
       d="m 152.18,80.76 a 99.86,99.86 0 0 1 -11,-0.14 c -1.26,-0.14 -2.34,-1.9 -3.51,-2.92 1.22,-1 2.42,-2.71 3.67,-2.75 7.3,-0.27 14.62,-0.31 21.92,0 1.42,0.06 2.76,2.08 4.14,3.19 -1.44,0.87 -2.81,2.34 -4.32,2.49 a 105.18,105.18 0 0 1 -10.9,0.13 z"
       id="path32" />
    <path
       class="cls-8"
       d="m 334.36,80.76 c -3.64,0 -7.29,0.2 -10.91,-0.11 -1.33,-0.11 -2.55,-1.43 -3.83,-2.2 1,-1.16 2,-3.29 3,-3.32 8.25,-0.3 16.52,-0.28 24.78,-0.07 0.85,0 2.4,2.1 2.27,3 a 4,4 0 0 1 -2.93,2.52 c -4.12,0.3 -8.26,0.12 -12.4,0.12 z"
       id="path34" />
    <path
       class="cls-8"
       d="m 179.46,34.18 c -2,0.88 -4,2.45 -4.81,2 q -10.9,-5.84 -21.38,-12.41 c -0.92,-0.58 -0.78,-2.83 -1.14,-4.31 1.42,-0.11 3.14,-0.81 4.19,-0.24 6.82,3.63 13.51,7.5 20.18,11.4 0.9,0.52 1.43,1.67 2.96,3.56 z"
       id="path36" />
    <path
       class="cls-8"
       d="m 336.1,138.13 c -1.91,0.44 -3.53,1.39 -4.42,0.93 q -11,-5.69 -21.75,-11.93 c -0.84,-0.49 -1.39,-2.85 -0.93,-3.76 0.46,-0.91 2.81,-1.69 3.62,-1.25 7.08,3.92 14,8.07 20.94,12.29 0.87,0.53 1.28,1.82 2.54,3.72 z"
       id="path38" />
    <path
       class="cls-5"
       d="m 352.23,207.46 c -3.81,-4.25 -12,-3.42 -12.89,-11 a 24.27,24.27 0 0 1 12.89,11 z"
       id="path40" />
    <path
       class="cls-6"
       d="m 71.9,281.15 -2.07,-14.87 1.72,-1.17 8.24,1 c -7.77,1.43 -7.75,1.43 -7.76,9 -0.03,2.07 -0.09,4.05 -0.13,6.04 z"
       id="path42" />
    <path
       class="cls-5"
       d="m 361.32,221.32 c -3.68,0.41 -5.28,-1.31 -5.06,-4.92 3.06,0.23 4.85,1.77 5.06,4.92 z"
       id="path44" />
    <path
       class="cls-5"
       d="m 135.8,207.58 c 0.71,4.23 -1.41,8.59 -4.23,8.66 z"
       id="path46" />
    <path
       class="cls-5"
       d="m 355.74,216.2 c -5.59,-0.88 -2.66,-5.23 -3.31,-8.12 1.1,2.71 2.21,5.41 3.31,8.12 z"
       id="path48" />
    <path
       class="cls-5"
       d="m 129.79,216.82 c -0.72,1.43 -1.15,3.13 -2.22,4.19 -0.91,0.88 -2.56,1 -3.87,1.47 z"
       id="path50" />
    <path
       class="cls-5"
       d="m 339.32,196.43 -2,-1 z"
       id="path52" />
    <path
       class="cls-9"
       d="m 330.6,223.22 c -14.19,-4.52 -28.68,-4.45 -43.67,-2.53 0.14,-3.94 -2.1,-7.74 2,-10.73 0.25,-0.18 -0.94,-2.33 -1.46,-3.57 -1.42,-6.86 -0.77,-7.89 5.68,-8.92 2.75,-0.45 5.5,-0.87 8.25,-1.3 l 4.43,-0.59 2.69,-0.09 c 9.59,0.6 19.23,1.17 27.88,5.92 6,3.29 12,6.77 11.93,15 q 0,40.86 0,81.71 c -1,3.71 -3.76,1.83 -5.73,1.66 -9.94,-0.82 -19.85,-2 -29.79,-2.79 a 144.51,144.51 0 0 0 -48.95,4.17 c -0.73,0.2 -1.48,0.3 -3.08,0.61 2.94,-4.38 2.73,-10 9,-10.72 0.95,-0.1 2.51,-1.81 2.42,-2.61 -0.13,-1.13 -1.55,-2.11 -2.68,-3.48 l 2.92,-6.74 q 1.13,-1.87 2.24,-3.77 l -0.09,0.06 c 18.91,-5 37.83,-4.51 56.82,-0.38 2.85,0.62 6,0 9,-0.05 a 30.8,30.8 0 0 0 0.91,-5.14 q 0.1,-17.44 0,-34.87 a 67.76,67.76 0 0 0 -0.71,-6.78 z m -45.71,56.78 -8.19,5.27 c 1,0.83 2.26,2.54 2.93,2.33 a 19.4,19.4 0 0 0 6.39,-3.36 c 0.44,-0.32 -0.68,-2.63 -1.13,-4.24 z m 37.9,0.9 -3.3,3.72 c 2.08,0.92 4.11,2.13 6.29,2.59 0.85,0.18 2.06,-1.35 3.1,-2.1 z m -13,-1.27 -4.52,3.51 c 1.69,0.82 3.34,2.13 5.1,2.3 1.32,0.12 2.78,-1.22 4.19,-1.9 z m -15.36,7.12 5.88,-3.91 c -1.27,-0.7 -2.64,-2.1 -3.8,-1.94 -1.94,0.26 -3.76,1.51 -5.63,2.34 z m 8,-82.73 -4.14,3.48 c 1.62,0.88 3.19,2.32 4.87,2.46 1.34,0.1 2.8,-1.4 4.2,-2.18 z m 18.31,8.53 4.37,-3.18 c -1.61,-1 -3.13,-2.52 -4.85,-2.82 -1.25,-0.22 -2.79,1.18 -4.19,1.86 z m 20.15,0.47 0.11,-1.49 c -1.4,-0.73 -2.77,-1.9 -4.22,-2 -1,-0.09 -2.15,1.26 -3.23,2 1.3,1 2.47,2.33 3.93,2.78 0.93,0.28 2.27,-0.79 3.42,-1.25 z m 0,75.38 c 0,-0.52 0.09,-1 0.13,-1.54 -1.39,-0.71 -2.74,-1.86 -4.17,-2 -1.05,-0.08 -2.21,1.21 -3.32,1.88 1.29,1 2.45,2.41 3.91,2.88 0.91,0.38 2.28,-0.72 3.45,-1.18 z"
       id="path54" />
    <path
       class="cls-10"
       d="m 222.71,231.58 c 3.18,0.82 6.4,1.52 9.54,2.49 a 18.32,18.32 0 0 1 12.6,12.26 q 0.38,12.91 0.77,25.84 v 8 c -0.34,1 -0.69,1.9 -1,2.85 q -1.35,-2.58 -2.71,-5.16 v 0 c -9.36,-20.26 -32.13,-29.34 -54.35,-21.69 l -5.94,0.1 q 0,-39.36 0,-78.74 c 0.4,-1.3 0.8,-2.6 1.19,-3.9 l 4.76,-2.29 c 4.47,0.25 9,0.13 13.37,0.94 1.62,0.3 2.82,2.81 4.22,4.31 v 5 l -0.12,40.7 a 36.84,36.84 0 0 0 -0.11,5.84 c 0.18,1.42 1.08,2.75 1.65,4.12 z"
       id="path56" />
    <path
       class="cls-9"
       d="m 196.57,274.53 -5,0.07 A 97.36,97.36 0 0 0 155,282 h -0.28 c -0.5,-1.41 -1.41,-2.82 -1.42,-4.23 q -0.21,-39.07 -0.16,-78.15 c 0,-2.06 0.91,-4.12 1.39,-6.17 a 32.52,32.52 0 0 1 21.34,-4.6 c 0,2.47 0.37,4.82 -0.13,7 -0.31,1.36 -1.78,2.58 -3,3.53 a 8.46,8.46 0 0 1 -3.15,1 c -5.69,1.42 -7.85,4.15 -7.85,10 0,7.77 0,15.54 0,23.3 0,3.8 1.54,4.79 5,3 2.35,-1.19 4.78,-2.22 7.17,-3.33 l 1.68,-0.14 c 0.19,0.56 0.39,1.13 0.59,1.7 0,1.15 0,2.29 0,3.44 a 0.69,0.69 0 0 0 0,0.91 c 0,0.7 0,1.39 0,2.09 v 1.88 q 0,10 0,20 c 0,0.89 0,1.78 0,2.68 l 2.47,-0.73 2,-1 v 0 l 1.37,-0.44 h 0.09 c 2.21,-0.72 4.39,-1.52 6.61,-2.17 19,-5.54 35.13,-0.68 45,13.86 2.67,3.93 4.55,8.4 6.79,12.62 l 1.07,4.89 -17.73,-12 -4.26,-1.93 h 0.05 z"
       id="path58" />
    <path
       class="cls-10"
       d="m 210.79,159.59 c 6.79,0.85 13.83,0.85 20.29,2.78 8.48,2.53 12.92,9.25 13.79,18.13 l 0.36,7.09 c -0.08,0.13 -0.25,0.28 -0.22,0.38 a 5,5 0 0 0 0.32,0.81 l 0.3,42.5 c -0.17,1 -0.33,1.91 -0.58,3.32 a 38.07,38.07 0 0 0 -22.63,-8.53 c -2.63,-0.1 -5.29,0.4 -7.9,0.17 -1.35,-0.11 -2.62,-1.23 -3.92,-1.9 q 0.09,-32.34 0.19,-64.75 z"
       id="path60" />
    <path
       class="cls-10"
       d="m 139.18,216.31 c -0.07,-4.84 2.81,-5.76 7.41,-5.07 0.27,3 0.56,6.24 0.85,9.43 q 0,32.09 0,64.17 c -0.12,1.61 -0.25,3.22 -0.39,5.14 10.86,-2.85 21.12,-6.11 31.62,-8.18 18.82,-3.71 36.83,-1.93 52.26,10.88 a 49.85,49.85 0 0 1 8.75,10.25 c -33.16,-10.65 -66.54,-6.05 -100.37,-2.36 v -6.86 q 0,-34.38 0,-68.76 c 0,-1.81 -0.2,-3.63 -0.3,-5.44 0.06,-1.07 0.12,-2.14 0.17,-3.2 z"
       id="path62" />
    <path
       class="cls-2"
       d="m 262.29,286.2 -10.64,18.48 c -0.21,-4.11 -0.35,-6.83 -0.48,-9.55 v -63.82 c 0,-3 0,-6 -0.05,-9 q 0,-5 0,-10 1.69,-6.26 3.38,-12.49 l 1.69,0.25 a 61.72,61.72 0 0 1 -0.05,7.07 c -0.55,4.74 1.23,7.74 5.73,9.49 a 45.66,45.66 0 0 1 7.38,4 c 10.74,6.63 12.78,11.74 10.34,25.55 q -7.05,16.95 -14.09,33.9 v 0 z"
       id="path64" />
    <path
       class="cls-9"
       d="m 280.47,268.32 -2.87,-0.2 q 4.35,-14.4 8.71,-28.81 l 1.13,-2.12 c 16.54,-2.11 32.65,0.64 48.67,4.29 l 0.18,27.68 -8.42,-0.06 v -0.06 c -15.77,-4.27 -31.56,-3.97 -47.4,-0.72 z m 44,-16.16 a 39.83,39.83 0 0 0 -5.14,4.39 4,4 0 0 0 -0.31,3.4 c 0.18,0.46 2.13,0.74 3,0.39 9.14,-3.66 10,-7.9 3.21,-14.86 -0.34,-0.35 -0.62,-1 -1,-1 a 33.8,33.8 0 0 0 -3.5,-0.44 c -0.06,1.2 -0.58,2.64 -0.09,3.56 0.87,1.51 2.36,2.75 3.88,4.56 z m -29.36,-1.83 a 52.14,52.14 0 0 0 5.23,-4.4 c 0.59,-0.65 0.88,-2.62 0.48,-2.93 -0.83,-0.64 -2.58,-1.17 -3.3,-0.72 a 43.2,43.2 0 0 0 -7.4,5.78 4,4 0 0 0 -0.24,3.83 33.59,33.59 0 0 0 5.63,6.23 c 0.69,0.61 2.25,0.24 3.42,0.32 0,-1.19 0.44,-2.6 -0.05,-3.52 -0.79,-1.56 -2.21,-2.81 -3.72,-4.59 z m 20.44,-7.14 -2,-1.26 -9.22,17.56 2,1.05 z"
       id="path66" />
    <path
       class="cls-10"
       d="m 281.37,197.4 v 2 20.93 c -0.89,-0.11 -2,0.06 -2.64,-0.38 -3.86,-2.51 -7.41,-5.59 -11.49,-7.63 -3.75,-1.87 -5.66,-4 -5.06,-8.32 0.24,-1.74 -0.24,-3.58 -0.4,-5.38 q 0,-5.7 0,-11.4 0,-9.27 0,-18.53 v -12 l 0.09,-5.36 c 0.28,-1.25 0.56,-2.51 0.9,-4.06 8.29,2 13.52,7.13 17,14.33 a 82.17,82.17 0 0 1 1.06,8.37 c 0.28,9.18 0.37,18.31 0.54,27.43 z"
       id="path68" />
    <path
       class="cls-11"
       d="m 361.45,313 -1.14,5.08 H 258.49 l -6.56,-0.57 c 0.17,-3.91 2.64,-4.39 5.44,-4.39 8.29,0 16.58,0 24.87,0 q 36.08,0 72.15,0 c 1.65,0 3.3,-0.18 4.95,-0.28 l 0.44,0.08 0.42,-0.12 z"
       id="path70" />
    <path
       class="cls-12"
       d="m 125.4,317.29 a 0.62,0.62 0 0 1 -0.3,-0.64 c 0.2,-1.15 0.41,-2.29 0.61,-3.43 l 1,-0.18 0.46,0.06 0.45,-0.14 h 4.05 l 109.75,0.11 c 1,1.32 2,2.65 3,4 q -26.16,0 -52.32,0 -33.31,0.09 -66.7,0.22 z"
       id="path72" />
    <path
       class="cls-7"
       d="m 240.49,288.16 c -2.24,-4.22 -4.12,-8.69 -6.79,-12.62 -9.87,-14.54 -26,-19.4 -45,-13.86 -2.22,0.65 -4.4,1.45 -6.61,2.17 3.7,-2 7.4,-4 12.25,-6.64 l -6.8,-1.09 c 22.22,-7.65 45,1.43 54.35,21.69 -3.17,0.85 -3.78,2.63 -2.36,5.58 0.68,1.41 0.67,3.17 0.96,4.77 z"
       id="path74" />
    <path
       class="cls-13"
       d="m 323.6,234.2 -36.25,-3.57 c 0,-0.55 -0.12,-2.54 -0.23,-4.7 13.84,-2.66 27.1,-1.64 40.31,1.14 4.06,1.56 9.83,1.28 8.89,8.22 l -1,1.09 z"
       id="path76" />
    <path
       class="cls-6"
       d="m 336.32,235.29 c 0.94,-6.94 -4.83,-6.66 -8.89,-8.22 l 4.3,-1.31 c -0.39,-0.86 -0.76,-1.7 -1.13,-2.54 l 10,4 q -0.09,23.4 -0.2,46.79 c -3,0.05 -6.11,0.67 -9,0.05 -19,-4.13 -37.91,-4.64 -56.82,0.38 l 1.49,-3.88 7.38,0.54 0.31,-0.89 -3.31,-1.91 c 15.84,-3.25 31.63,-3.55 47.36,0.72 -10.2,-0.6 -20.4,-1.37 -30.61,-1.73 -3.31,-0.11 -6.67,0.83 -10.12,1.3 12.47,0.86 24.55,1.77 36.64,2.43 1.34,0.08 2.75,-1.26 4.13,-1.94 l 8.42,0.06 h 1 l -7.4,2.07 c 6.83,2.83 9.24,2 9.34,-3.29 q 0.25,-14.6 -0.09,-29.19 c 0.04,-1.12 -1.8,-2.27 -2.8,-3.44 z"
       id="path78" />
    <path
       class="cls-14"
       d="m 145.73,307.48 -3,-1.41 25.21,-2.79 7.65,-0.41 3,0.07 20.72,-0.67 3,0.31 2.27,0.08 24.27,3.25 -0.09,1 -3.34,0.52 h -6.87 z"
       id="path80" />
    <path
       class="cls-14"
       d="m 278.48,307.53 h -4.05 -4 a 0.7,0.7 0 0 0 -0.91,0 h -2 c 2.65,-1.05 5.22,-2.69 8,-3.05 a 231.46,231.46 0 0 1 66.59,0.84 c 1.79,0.28 3.44,1.49 5.15,2.27 l -2.2,0.09 -1.61,-0.18 z"
       id="path82" />
    <path
       class="cls-4"
       d="m 151.59,280.16 h -2.88 q 0,-32.39 0,-64.79 h 2.88 0.05 z"
       id="path84" />
    <path
       class="cls-6"
       d="m 286.31,239.31 q -4.37,14.41 -8.71,28.81 c -1.51,0.91 -3.33,1.55 -4.48,2.79 -2.71,2.93 -5.11,6.16 -7.63,9.27 q 7,-16.95 14.09,-33.9 l 2.62,3.46 c 1.55,-3.92 2.8,-7.17 4.11,-10.43 z"
       id="path86" />
    <path
       class="cls-15"
       d="m 125.71,313.22 c -0.2,1.14 -0.41,2.28 -0.61,3.43 a 4,4 0 0 1 -0.51,-0.58 v -2.95 c 0,-1 0,-2.06 0,-3.09 v -49.86 q 0,-12.9 0,-25.81 l 0.42,-5.57 h 0.76 c 0.27,0.84 0.55,1.68 0.82,2.52 -0.06,3 -0.17,5.94 -0.18,8.91 q -0.09,35.45 -0.14,70.89 c -0.19,0.67 -0.37,1.39 -0.56,2.11 z"
       id="path88" />
    <path
       class="cls-16"
       d="m 361.45,313 -1.25,-0.22 v -83.31 c 0.62,0.08 1.73,0 1.78,0.25 a 17.18,17.18 0 0 1 0.27,3.44 q 0,37.77 0,75.53 a 25.89,25.89 0 0 1 -0.8,4.31 z"
       id="path90" />
    <path
       class="cls-16"
       d="m 355.4,304 c -0.3,0.53 -0.6,1.05 -1.56,2.76 -0.22,-2.66 -0.44,-4.05 -0.44,-5.45 0,-24.38 0,-48.77 0.07,-73.15 0,-1.24 -1.74,-4.12 1.95,-3.71 q -0.01,39.78 -0.02,79.55 z"
       id="path92" />
    <path
       class="cls-17"
       d="m 145.73,307.48 h 72.9 6.87 c -1.59,0.55 -3.17,1.56 -4.76,1.57 q -35.12,0.17 -70.24,0 c -1.6,-0.05 -3.18,-1.05 -4.77,-1.57 z"
       id="path94" />
    <path
       class="cls-17"
       d="m 131.88,303.09 c -0.39,-1.71 -1.13,-3.41 -1.13,-5.12 q -0.12,-34.86 0,-69.71 c 0,-1.64 0.91,-3.27 1.4,-4.9 q -0.15,39.86 -0.27,79.73 z"
       id="path96" />
    <path
       class="cls-18"
       d="m 258.49,318.11 h 101.82 c 0,0.36 0,0.72 0,1.08 h -1.92 -24 l -18,0.9 h -25 l -21.89,-0.91 -11.07,-0.08 v 0 c 0.03,-0.34 0.05,-0.66 0.06,-0.99 z"
       id="path98" />
    <path
       class="cls-7"
       d="m 251.2,231.31 v 63.82 a 12.33,12.33 0 0 1 -1.08,-3.18 c -0.23,-4.44 -0.4,-8.84 -4.48,-11.8 v -8 h 0.85 l 0.31,6.05 c 3.78,-2.29 3.81,-5 3.53,-8.05 -0.21,-2.25 0.28,-4.6 -0.13,-6.79 -1.68,-9 2.53,-18.46 -2.06,-27.28 -1.61,-3.03 0.53,-4.08 3.06,-4.77 z"
       id="path100" />
    <path
       class="cls-19"
       d="m 345,307.72 2.2,-0.09 c -1.47,0.49 -2.94,1.38 -4.41,1.39 q -30,0.14 -60,0 c -1.43,0 -2.86,-1 -4.3,-1.49 h 64.9 z"
       id="path102" />
    <path
       class="cls-15"
       d="m 125.4,317.29 q 33.38,-0.1 66.76,-0.2 26.16,0 52.32,0 a 1.47,1.47 0 0 1 0,1 l -117.77,0.16 z"
       id="path104" />
    <path
       class="cls-19"
       d="M 126.73,318.19 244.5,318 l -5.06,1.15 H 130.76 Z"
       id="path106" />
    <path
       class="cls-6"
       d="m 323.6,234.2 11.73,2.18 q 0.53,2.48 1.07,5 l -0.28,0.15 c -16,-3.65 -32.14,-6.4 -48.68,-4.29 1.51,-0.63 3,-1.82 4.52,-1.8 7.56,0.11 15.12,0.76 22.68,0.74 2.99,-0.06 5.97,-1.3 8.96,-1.98 z"
       id="path108" />
    <path
       class="cls-18"
       d="M 241.47,313.09 131.72,313 a 38.54,38.54 0 0 1 5.77,-0.88 q 39.44,-0.08 78.86,0 c 7.29,0 14.57,0 21.85,0 a 12.61,12.61 0 0 1 3.27,0.97 z"
       id="path110" />
    <path
       class="cls-7"
       d="m 154.49,193.44 c -0.48,2.05 -1.39,4.11 -1.39,6.17 q -0.06,39.07 0.16,78.15 c 0,1.41 0.92,2.82 1.42,4.23 l -3,-0.77 a 23.2,23.2 0 0 0 0.83,-4.29 q 0.07,-28.65 0,-57.31 a 22.36,22.36 0 0 0 -0.83,-4.27 h -0.05 c 0,-1 0,-1.9 0.05,-2.85 l 0.75,-15.62 z"
       id="path112" />
    <path
       class="cls-20"
       d="m 131.88,303.09 q 0.15,-39.87 0.28,-79.73 c 0.55,0.68 1.09,1.37 1.64,2.06 q 0,40.34 0,80.67 z"
       id="path114" />
    <path
       class="cls-17"
       d="m 139.18,216.31 c -0.05,1.06 -0.11,2.13 -0.16,3.2 -0.15,1.8 -0.44,3.61 -0.44,5.41 q 0,33.37 0,66.75 v 4.91 h -0.65 c -0.09,-1.19 -0.24,-2.38 -0.24,-3.58 q 0,-36.86 0,-73.72 c 0,-1.16 0,-2.31 0.07,-3.47 z"
       id="path116" />
    <path
       class="cls-17"
       d="m 360.17,229.49 v 83.31 l -0.42,0.12 -0.44,-0.08 q 0,-39.29 0,-78.58 a 27.34,27.34 0 0 1 0.86,-4.77 z"
       id="path118" />
    <path
       class="cls-17"
       d="m 126.27,311.06 q 0.06,-35.44 0.14,-70.89 c 0,-3 0.12,-5.94 0.18,-8.91 a 26.32,26.32 0 0 1 1.07,5.16 c 0.06,25.51 0,51 0,76.54 l -0.45,0.14 -0.46,-0.06 c -0.16,-0.66 -0.32,-1.32 -0.48,-1.98 z"
       id="path120" />
    <path
       class="cls-19"
       d="m 348.34,298.07 q 0,-40.85 0,-81.71 a 22.32,22.32 0 0 1 1,4.66 q 0.1,36.18 0,72.36 a 22.89,22.89 0 0 1 -1,4.69 z"
       id="path122" />
    <path
       class="cls-17"
       d="m 133.82,306.09 q 0,-40.33 0,-80.67 a 27.32,27.32 0 0 1 0.84,4.76 q 0.08,35.57 0,71.13 a 28.63,28.63 0 0 1 -0.84,4.78 z"
       id="path124" />
    <path
       class="cls-17"
       d="m 261.83,151.39 -0.09,5.36 v 12 q 0,9.27 0,18.54 0,5.7 0,11.4 l -0.63,8.26 h -0.42 v -57.68 z"
       id="path126" />
    <path
       class="cls-17"
       d="m 355.4,304 q 0,-39.78 0,-79.55 a 27.19,27.19 0 0 1 0.87,4.74 q 0.07,35 0,70.07 A 26.32,26.32 0 0 1 355.4,304 Z"
       id="path128" />
    <path
       class="cls-19"
       d="m 181.59,177.48 v 78.74 a 23.94,23.94 0 0 1 -0.95,-4.72 q -0.1,-34.65 0,-69.29 a 24,24 0 0 1 0.95,-4.73 z"
       id="path130" />
    <path
       class="cls-19"
       d="m 148.72,215.37 q 0,32.4 0,64.79 v 7.41 l -0.54,0.09 c -0.24,-0.94 -0.47,-1.88 -0.71,-2.82 q 0,-32.08 0,-64.17 c 0.18,-2.29 0.36,-4.57 0.55,-6.86 h 0.46 z"
       id="path132" />
    <path
       class="cls-17"
       d="m 205.13,181.55 v -5 c 0.48,1.8 1.35,3.6 1.36,5.4 0.12,16.44 0.09,32.88 0.11,49.32 0,0.32 0,0.63 -0.05,1 -0.57,-1.37 -1.47,-2.7 -1.65,-4.12 a 36.84,36.84 0 0 1 0.11,-5.84 z"
       id="path134" />
    <path
       class="cls-17"
       d="m 151.65,215.35 a 22.36,22.36 0 0 1 0.83,4.27 q 0.09,28.66 0,57.31 a 23.2,23.2 0 0 1 -0.83,4.29 c 0,-0.35 0,-0.71 -0.07,-1.06 z"
       id="path136" />
    <path
       class="cls-17"
       d="m 210.79,159.59 q -0.09,32.37 -0.19,64.75 a 23,23 0 0 1 -1,-4.67 q -0.1,-27.76 0,-55.53 c 0,-1.52 0.78,-3.03 1.19,-4.55 z"
       id="path138" />
    <path
       class="cls-19"
       d="m 245.23,187.59 -0.36,-7.09 c 0.54,1.09 1.55,2.18 1.56,3.27 0.1,14.91 0.07,29.82 0,44.73 a 10.44,10.44 0 0 1 -0.81,2.78 l -0.3,-42.5 c -0.02,-0.4 -0.06,-0.78 -0.09,-1.19 z"
       id="path140" />
    <path
       class="cls-7"
       d="m 155,282 a 97.36,97.36 0 0 1 36.63,-7.37 c -4,0.84 -8.08,1.66 -12.11,2.52 -5.76,1.22 -11.51,2.51 -17.28,3.69 -2.43,0.46 -4.86,0.75 -7.24,1.16 z"
       id="path142" />
    <path
       class="cls-17"
       d="m 176.08,238.34 c 0,-1.15 0,-2.29 0,-3.44 0.5,0.28 1.44,0.57 1.44,0.86 q 0.12,13.14 0,26.28 c 0,0.41 -0.93,0.81 -1.43,1.22 q 0,-10 0,-20 v -1.88 c 0,-0.7 0,-1.39 0,-2.09 0.08,-0.09 0.25,-0.19 0.24,-0.27 a 3.81,3.81 0 0 0 -0.25,-0.68 z"
       id="path144" />
    <path
       class="cls-21"
       d="m 175.78,203.25 c 0.14,0.07 0.36,0.11 0.43,0.22 2.18,3.34 1.92,21.76 -0.33,25.07 l -0.34,-0.29 v -24.72 z"
       id="path146" />
    <path
       class="cls-18"
       d="m 281.37,197.4 c -0.17,-9.12 -0.26,-18.25 -0.54,-27.37 a 82.17,82.17 0 0 0 -1.06,-8.37 c 0.87,1.65 2.45,3.29 2.5,5 0.24,9.53 0.14,19.07 0.08,28.6 -0.01,0.74 -0.64,1.42 -0.98,2.14 z"
       id="path148" />
    <path
       class="cls-7"
       d="m 301.37,196.17 c -2.75,0.43 -5.5,0.85 -8.25,1.3 -6.45,1 -7.1,2.06 -5.68,8.92 -0.89,-2.42 -2.31,-4.83 -2.36,-7.27 0,-0.87 3.22,-2.36 5.1,-2.6 a 106.91,106.91 0 0 1 11.19,-0.35 z"
       id="path150" />
    <path
       class="cls-18"
       d="m 281.34,220.36 v -20.93 c 0.53,2.69 1.28,5.36 1.55,8.08 a 74,74 0 0 1 0.29,10.21 c 0,0.9 -1.18,1.76 -1.84,2.64 z"
       id="path152" />
    <path
       class="cls-7"
       d="m 196.57,274.53 23.05,4.59 c -7.12,-1 -14.23,-2 -21.33,-3.05 -0.64,-0.07 -1.15,-1.01 -1.72,-1.54 z"
       id="path154" />
    <path
       class="cls-19"
       d="m 199.34,302.27 -20.72,0.67 c 1,-0.61 2,-1.72 3.06,-1.75 7.08,-0.16 14.17,-0.12 21.25,0 0.58,0 1.15,1 1.73,1.49 l -2.27,-0.08 z"
       id="path156" />
    <path
       class="cls-21"
       d="m 175.5,233.2 -1.68,0.14 c -2.09,-0.44 -4.21,-0.77 -6.25,-1.37 -0.75,-0.23 -1.3,-1.1 -1.94,-1.68 l 1,-0.29 9,-1.75 0.34,0.29 c -0.22,1.56 -0.35,3.11 -0.47,4.66 z"
       id="path158" />
    <path
       class="cls-6"
       d="m 206.55,232.21 c 0,-0.32 0,-0.63 0.05,-1 0.95,-0.57 2,-1.7 2.84,-1.61 4.44,0.47 8.85,1.26 13.27,1.93 z"
       id="path160" />
    <path
       class="cls-18"
       d="m 246.47,272.19 h -0.85 q -0.39,-12.92 -0.77,-25.84 c 0.55,1.58 1.54,3.15 1.58,4.74 0.16,7.02 0.05,14.06 0.04,21.1 z"
       id="path162" />
    <path
       class="cls-17"
       d="m 124.59,234.36 q 0,12.91 0,25.81 -0.01,-12.9 0,-25.81 z"
       id="path164" />
    <path
       class="cls-22"
       d="m 166.58,230 -1,0.29 q -0.1,-10.39 -0.19,-20.79 c 0.06,-0.7 0.12,-1.4 0.17,-2.09 v 0 l 1,0.21 q 0.05,11.17 0.02,22.38 z"
       id="path166" />
    <path
       class="cls-18"
       d="m 187.54,171.29 -4.76,2.29 c -0.75,-1.71 -1.5,-3.41 -2.26,-5.12 v 0 z"
       id="path168" />
    <path
       class="cls-7"
       d="m 251.11,212.37 q 0,5 0,10 c -2.64,-3.37 -2.58,-6.66 0,-10 z"
       id="path170" />
    <path
       class="cls-21"
       d="m 167.52,205.29 c 3.66,-3.3 5.8,-3.82 8.25,-2 l -0.26,0.28 -7.32,2.43 z"
       id="path172" />
    <path
       class="cls-17"
       d="m 152.4,196.86 -0.75,15.62 z"
       id="path174" />
    <path
       class="cls-19"
       d="m 270.41,307.51 h 4 c -2.31,2.36 -4.62,2.29 -6.95,0 h 2 z"
       id="path176" />
    <path
       class="cls-19"
       d="m 175.58,302.87 -7.65,0.41 -1.81,-0.46 v -0.91 z"
       id="path178" />
    <path
       class="cls-6"
       d="m 274.69,274.4 q -1.11,1.89 -2.24,3.77 c -1.85,-2.8 -0.29,-3.57 2.24,-3.77 z"
       id="path180" />
    <path
       class="cls-7"
       d="m 241.86,277.84 q 1.36,2.58 2.71,5.16 -1.35,-2.58 -2.71,-5.16 z"
       id="path182" />
    <path
       class="cls-6"
       d="m 262.29,286.2 3.19,-6 z"
       id="path184" />
    <path
       class="cls-17"
       d="M 124.58,265.27 Z"
       id="path186" />
    <path
       class="cls-17"
       d="M 124.58,281.23 Z"
       id="path188" />
    <path
       class="cls-17"
       d="M 124.58,297.18 Z"
       id="path190" />
    <path
       class="cls-7"
       d="m 219.57,279.11 4.26,1.93 z"
       id="path192" />
    <path
       class="cls-21"
       d="m 166.62,207.57 -1,-0.21 1.88,-2.07 0.67,0.67 z"
       id="path194" />
    <path
       class="cls-17"
       d="M 124.59,313.12 Z"
       id="path196" />
    <path
       class="cls-7"
       d="m 308.49,195.49 -2.69,0.09 z"
       id="path198" />
    <path
       class="cls-7"
       d="m 180.63,264.25 -2,1 z"
       id="path200" />
    <path
       class="cls-17"
       d="M 124.58,308.14 Z"
       id="path202" />
    <path
       class="cls-21"
       d="m 165.61,207.41 c -0.05,0.69 -0.11,1.39 -0.17,2.09 0.06,-0.7 0.12,-1.4 0.17,-2.09 z"
       id="path204" />
    <path
       class="cls-7"
       d="m 182,263.81 -1.37,0.44 z"
       id="path206" />
    <path
       class="cls-2"
       d="m 213.9,41 c 7.76,-3.93 15.21,-10.27 23.33,-11.27 14.59,-1.79 29,1.26 40.63,12 18.4,17 21.56,43.39 7.48,63.73 a 48.19,48.19 0 0 1 -61.6,15.35 c -25.8,-13.15 -32.1,-42 -21.88,-63.83 0.49,-1 1,-2.08 1.52,-3.12 l 0.4,-0.89 -0.09,0.1 2,-3.15 -0.13,0.12 1,-1.16 v 0 l 2.27,-2.88 0.78,-0.89 3.11,-3.11 h -0.15 z m 7.65,52.67 0.07,0.07 4.83,0.07 0.14,-0.12 c 0.65,2.46 1.49,4.89 1.89,7.38 0.38,2.33 -0.48,5.16 3.17,5.56 l 1,0.9 1.9,1.22 4,1.23 2.07,0.59 c 3,0 5.93,0.1 8.89,-0.06 10.91,-0.59 13.57,-4 11.71,-14.73 l 10.36,-2.93 1.1,-0.08 a 1.2,1.2 0 0 0 0.8,-0.53 l 3.21,-3.43 1,-2 0.42,-2 c 2.53,-1.38 3.74,-3 0.7,-5.1 l -0.16,-7 -0.87,-3.94 c -0.08,-0.33 -0.17,-0.65 -0.25,-1 l -1.89,-3 a 2.67,2.67 0 0 0 -0.84,-0.08 l -3.23,-2.89 c -2.2,-3.89 -4.66,-0.84 -7,-0.27 l -0.31,0.18 -2.7,-8.82 c -1.43,-3.46 -3.52,-6.52 -7.53,-6.73 a 107.2,107.2 0 0 0 -17.19,0.14 c -3.92,0.43 -7,2.91 -7.18,7.54 v 8 c -4.59,0.68 -9.76,-1 -13.3,3.73 -4,5.34 -4.27,19.38 0,24.64 1,1.28 2.94,1.84 4.45,2.73 z"
       id="path208" />
    <path
       class="cls-18"
       d="m 212.72,42 -3.11,3.08 z"
       id="path210" />
    <path
       class="cls-18"
       d="m 208.83,46 -2.28,2.89 z"
       id="path212" />
    <path
       class="cls-18"
       d="m 205.72,49.89 -2,3.15 z"
       id="path214" />
    <path
       class="cls-18"
       d="m 203.78,52.94 -0.4,0.89 c 0.13,-0.29 0.27,-0.59 0.4,-0.89 z"
       id="path216" />
    <path
       class="cls-18"
       d="m 213.9,41 -1.33,1 z"
       id="path218" />
    <path
       class="cls-18"
       d="m 206.55,48.85 -1,1.16 z"
       id="path220" />
    <path
       class="cls-3"
       d="m 316.38,320.08 18,-0.9 c -0.69,0.6 -1.4,1.73 -2.08,1.71 -5.3,-0.15 -10.6,-0.51 -15.92,-0.81 z"
       id="path222" />
    <path
       class="cls-3"
       d="m 258.46,319.1 11.07,0.08 c -3.82,3.36 -9.64,3.32 -11.07,-0.08 z"
       id="path224" />
    <path
       class="cls-3"
       d="m 354.25,319.17 h 4.13 c -1.38,2.68 -2.75,2.67 -4.13,0 z"
       id="path226" />
    <path
       class="cls-3"
       d="M 291.42,320.09 Z"
       id="path228" />
    <path
       class="cls-3"
       d="M 307.4,320.09 Z"
       id="path230" />
    <path
       class="cls-23"
       d="m 133.4,190.28 -28.78,1.91 c 0,-6.37 -0.12,-13.57 0.13,-20.77 0,-1.08 1.56,-2.53 2.75,-3.09 7.57,-3.59 15.49,-2.77 23.34,-1.16 a 4.19,4.19 0 0 1 2.45,3.1 c 0.22,6.91 0.11,13.83 0.11,20.01 z m -13.25,-19.9 c -0.82,0.47 -2.48,0.83 -2.83,1.71 -1.67,4.13 -2.22,8.44 0.38,12.43 0.44,0.68 2,0.61 2.45,0.73 z"
       id="path232" />
    <path
       class="cls-24"
       d="m 357.36,186.69 c 8.46,-0.61 9.89,1 8.37,9.19 -8.24,1.12 -9.73,-0.42 -8.37,-9.19 z"
       id="path234" />
    <path
       class="cls-25"
       d="m 408.85,250.48 -8.39,-1.31 v -8.52 c 8.47,-1.02 9.74,0.35 8.39,9.83 z"
       id="path236" />
    <path
       class="cls-12"
       d="m 71.9,281.15 c 0,-2 0.13,-4 0.13,-6 0,-7.61 0,-7.61 7.76,-9 l 8.28,1 c 0.14,1.47 0.32,2.44 0.33,3.41 0,3.12 0,6.24 0,9.24 z"
       id="path238" />
    <path
       class="cls-20"
       d="m 340.38,274 q 0.11,-23.4 0.2,-46.79 a 67.76,67.76 0 0 1 0.71,6.78 q 0.1,17.43 0,34.87 a 30.8,30.8 0 0 1 -0.91,5.14 z"
       id="path240" />
    <path
       class="cls-7"
       d="m 284.89,280 c 0.45,1.57 1.57,3.88 1.13,4.24 a 19.4,19.4 0 0 1 -6.39,3.36 c -0.67,0.21 -1.94,-1.5 -2.93,-2.33 z"
       id="path242" />
    <path
       class="cls-7"
       d="m 322.79,280.94 6.09,4.21 c -1,0.75 -2.25,2.28 -3.1,2.1 -2.18,-0.46 -4.21,-1.67 -6.29,-2.59 z"
       id="path244" />
    <path
       class="cls-6"
       d="m 309.82,279.67 4.77,3.91 c -1.41,0.68 -2.87,2 -4.19,1.9 -1.76,-0.17 -3.41,-1.48 -5.1,-2.3 z"
       id="path246" />
    <path
       class="cls-6"
       d="m 294.46,286.79 -3.55,-3.51 c 1.87,-0.83 3.69,-2.08 5.63,-2.34 1.16,-0.16 2.53,1.24 3.8,1.94 z"
       id="path248" />
    <path
       class="cls-7"
       d="m 302.44,204.06 4.93,3.76 c -1.4,0.78 -2.86,2.28 -4.2,2.18 -1.68,-0.14 -3.25,-1.58 -4.87,-2.46 z"
       id="path250" />
    <path
       class="cls-7"
       d="m 320.75,212.59 -4.67,-4.14 c 1.4,-0.68 2.94,-2.08 4.19,-1.86 1.72,0.3 3.24,1.82 4.85,2.82 z"
       id="path252" />
    <path
       class="cls-7"
       d="m 340.9,213.06 c -1.15,0.46 -2.49,1.53 -3.41,1.24 -1.46,-0.45 -2.63,-1.81 -3.93,-2.78 1.08,-0.71 2.22,-2.06 3.23,-2 1.45,0.12 2.82,1.29 4.22,2 z"
       id="path254" />
    <path
       class="cls-7"
       d="m 340.89,288.44 c -1.17,0.46 -2.54,1.55 -3.45,1.25 -1.46,-0.47 -2.62,-1.87 -3.91,-2.88 1.11,-0.67 2.27,-2 3.32,-1.88 1.43,0.11 2.78,1.26 4.17,2 -0.02,0.48 -0.09,0.99 -0.13,1.51 z"
       id="path256" />
    <path
       class="cls-3"
       d="m 205.13,181.55 -0.12,40.7 z"
       id="path258" />
    <path
       class="cls-3"
       d="M 176.09,241.34 Z"
       id="path260" />
    <path
       class="cls-3"
       d="m 176.08,238.34 a 3.81,3.81 0 0 1 0.24,0.64 c 0,0.08 -0.16,0.18 -0.24,0.27 a 0.69,0.69 0 0 1 0,-0.91 z"
       id="path262" />
    <path
       class="cls-3"
       d="m 245.23,187.59 c 0,0.4 0.07,0.79 0.1,1.19 A 5,5 0 0 1 245,188 c 0,-0.13 0.15,-0.28 0.23,-0.41 z"
       id="path264" />
    <path
       class="cls-7"
       d="m 324.52,252.16 c -1.56,-1.81 -3,-3 -3.84,-4.61 -0.49,-0.92 0,-2.36 0.09,-3.56 a 33.8,33.8 0 0 1 3.5,0.44 c 0.39,0.09 0.67,0.7 1,1 6.81,7 5.93,11.2 -3.21,14.86 -0.87,0.35 -2.82,0.07 -3,-0.39 a 4,4 0 0 1 0.31,-3.4 39.83,39.83 0 0 1 5.15,-4.34 z"
       id="path266" />
    <path
       class="cls-7"
       d="m 295.16,250.33 c 1.51,1.78 2.93,3 3.77,4.59 0.49,0.92 0.06,2.33 0.05,3.52 -1.17,-0.08 -2.73,0.29 -3.42,-0.32 a 33.59,33.59 0 0 1 -5.63,-6.23 4,4 0 0 1 0.24,-3.83 43.2,43.2 0 0 1 7.4,-5.78 c 0.72,-0.45 2.47,0.08 3.3,0.72 0.4,0.31 0.11,2.28 -0.48,2.93 a 52.14,52.14 0 0 1 -5.23,4.4 z"
       id="path268" />
    <path
       class="cls-7"
       d="m 315.6,243.19 -9.24,17.35 -2,-1.05 9.22,-17.56 z"
       id="path270" />
    <path
       class="cls-19"
       d="m 337.34,269.21 h -1 l -0.18,-27.68 0.29,-0.15 a 31.29,31.29 0 0 1 0.92,5.18 c 0.04,7.52 -0.02,15.09 -0.03,22.65 z"
       id="path272" />
    <path
       class="cls-3"
       d="m 261.73,187.25 q 0,-9.27 0,-18.54 0.01,9.29 0,18.54 z"
       id="path274" />
    <path
       class="cls-3"
       d="M 261.74,164.32 Z"
       id="path276" />
    <path
       class="cls-20"
       d="m 126.27,311.06 c 0.16,0.66 0.32,1.32 0.49,2 l -1,0.18 c 0.14,-0.74 0.32,-1.46 0.51,-2.18 z"
       id="path278" />
    <path
       class="cls-3"
       d="m 337.34,269.21 c 0,-7.56 0.07,-15.13 0,-22.7 a 31.29,31.29 0 0 0 -0.92,-5.18 q -0.54,-2.47 -1.07,-5 l 1,-1.09 c 1,1.17 2.84,2.32 2.87,3.51 q 0.36,14.59 0.09,29.19 c -0.1,5.32 -2.51,6.12 -9.34,3.29 z"
       id="path280" />
    <path
       class="cls-3"
       d="m 327.87,269.1 c -1.38,0.68 -2.79,2 -4.13,1.94 -12.09,-0.66 -24.17,-1.57 -36.64,-2.43 3.45,-0.47 6.81,-1.41 10.12,-1.3 10.21,0.36 20.41,1.13 30.61,1.73 z"
       id="path282" />
    <path
       class="cls-3"
       d="M 221.47,307.44 Z"
       id="path284" />
    <path
       class="cls-3"
       d="m 199.34,302.27 3,0.31 z"
       id="path286" />
    <path
       class="cls-3"
       d="m 345,307.72 -1.61,-0.18 z"
       id="path288" />
    <path
       class="cls-3"
       d="m 270.41,307.51 h -0.91 a 0.7,0.7 0 0 1 0.91,0 z"
       id="path290" />
    <path
       class="cls-26"
       d="m 166.62,207.57 1.57,-1.61 7.32,-2.43 v 24.72 l -9,1.75 q 0.09,-11.22 0.11,-22.43 z"
       id="path292" />
    <path
       class="cls-27"
       d="m 229.53,53.87 c 0.17,-4.63 3.26,-7.11 7.18,-7.54 a 107.2,107.2 0 0 1 17.19,-0.14 c 4,0.21 6.1,3.27 7.53,6.73 l -0.09,4 c -0.44,1.31 -1.33,2.66 -1.25,4 0.62,9.45 -4.32,14.7 -14,14.91 -4.18,0.1 -8.34,0.68 -12.51,1 h -0.05 l -2,0.93 v 0 l -2,1.92 v 0 L 228.7,81 c -0.34,1.69 -0.74,3.38 -1,5.09 -0.4,2.52 -0.73,5.06 -1.08,7.6 l -0.15,0.12 -4.83,-0.07 -0.07,-0.07 -0.9,-0.69 c -1.51,-0.89 -3.42,-1.45 -4.45,-2.73 -4.24,-5.26 -4,-19.3 0,-24.64 3.54,-4.7 8.71,-3 13.3,-3.73 h 16.3 V 60 h -15 c -0.56,-2.63 -0.93,-4.38 -1.29,-6.13 z M 237.08,49 c -1.47,1.69 -3.17,2.84 -3,3.68 0.2,1.2 1.75,2.17 2.73,3.25 0.94,-0.94 2.51,-1.8 2.64,-2.84 0.13,-1.04 -1.22,-2.22 -2.37,-4.09 z"
       id="path294" />
    <path
       class="cls-28"
       d="m 261.14,95.77 c 1.86,10.75 -0.8,14.14 -11.71,14.73 -3,0.16 -5.93,0 -8.89,0.06 l -2.07,-0.59 -4,-1.23 -1.9,-1.22 -1,-0.9 c -0.49,-6.21 -1.24,-12.4 -1.39,-18.61 -0.14,-5.93 2.9,-8.92 8.82,-9.09 6.14,-0.19 12.28,-0.06 18.42,-0.08 l -6,13.75 -5.82,1 c 0,0.74 0,1.48 0.07,2.22 z"
       id="path296" />
    <path
       class="cls-29"
       d="m 251.5,92.59 6,-13.75 2.59,-1.17 1.35,-1 v 0 l 1,-1.35 1.26,-2.63 11.07,-8 a 2.67,2.67 0 0 1 0.84,0.08 l 1.89,3 c 0.08,0.33 0.17,0.65 0.25,1 l 0.87,3.94 c 0,2.33 0.11,4.65 0.16,7 -0.23,1.7 -0.46,3.4 -0.7,5.1 l -0.42,2 -1,2 -3.21,3.43 -0.8,0.53 -1.1,0.08 z"
       id="path298" />
    <path
       class="cls-30"
       d="m 260.09,77.67 -2.59,1.17 c -6.14,0 -12.28,-0.11 -18.42,0.08 -5.92,0.17 -9,3.16 -8.82,9.09 0.15,6.21 0.9,12.4 1.39,18.61 -3.65,-0.4 -2.79,-3.23 -3.17,-5.56 -0.4,-2.49 -1.24,-4.92 -1.89,-7.38 0.36,-2.54 0.69,-5.08 1.09,-7.6 0.28,-1.71 0.68,-3.4 1,-5.09 l 0.82,-1.2 v 0 l 2,-1.92 v 0 l 2,-0.93 h 0.05 c 6.11,-0.06 12.23,0 18.34,-0.2 6.84,-0.21 9.52,-3 9.55,-9.81 0,-3.3 -0.11,-6.6 -0.17,-9.89 l 0.09,-4 2.7,8.83 -0.51,11 -1.26,2.63 -1,1.35 v 0 z"
       id="path300" />
    <path
       class="cls-28"
       d="m 263.62,72.77 0.51,-11 0.31,-0.19 7,0.27 3.23,2.89 z"
       id="path302" />
    <path
       class="cls-25"
       d="m 251.5,92.59 20,0.25 -10.36,2.93 h -15.39 c 0,-0.74 -0.05,-1.48 -0.07,-2.22 z"
       id="path304" />
    <path
       class="cls-12"
       d="m 229.53,53.87 c 0.36,1.75 0.73,3.5 1.28,6.14 h 15 v 1.86 h -16.3 z"
       id="path306" />
    <path
       class="cls-30"
       d="m 278,84.83 c 0.24,-1.7 0.47,-3.4 0.7,-5.1 3.04,2.15 1.83,3.72 -0.7,5.1 z"
       id="path308" />
    <path
       class="cls-30"
       d="m 271.46,61.83 -7,-0.27 c 2.34,-0.56 4.8,-3.62 7,0.27 z"
       id="path310" />
    <path
       class="cls-30"
       d="m 278.54,72.76 -0.87,-3.94 z"
       id="path312" />
    <path
       class="cls-30"
       d="m 221.62,93.73 4.83,0.07 z"
       id="path314" />
    <path
       class="cls-30"
       d="m 277.42,67.84 -1.89,-3 z"
       id="path316" />
    <path
       class="cls-30"
       d="m 276.61,88.8 1,-2 z"
       id="path318" />
    <path
       class="cls-30"
       d="m 238.47,110 2.07,0.59 z"
       id="path320" />
    <path
       class="cls-30"
       d="m 232.6,107.52 1.9,1.22 z"
       id="path322" />
    <path
       class="cls-30"
       d="m 220.65,93 0.9,0.69 z"
       id="path324" />
    <path
       class="cls-30"
       d="m 272.6,92.76 0.8,-0.53 a 1.2,1.2 0 0 1 -0.8,0.53 z"
       id="path326" />
    <path
       class="cls-22"
       d="m 120.15,170.38 v 14.87 c -0.43,-0.12 -2,-0.05 -2.45,-0.73 -2.6,-4 -2,-8.3 -0.38,-12.43 0.35,-0.88 2.01,-1.24 2.83,-1.71 z"
       id="path328" />
    <path
       class="cls-5"
       d="m 261.34,57 c 0.06,3.29 0.18,6.59 0.17,9.89 0,6.78 -2.71,9.6 -9.55,9.81 -6.11,0.19 -12.23,0.14 -18.34,0.2 4.17,-0.36 8.33,-0.94 12.51,-1 9.64,-0.21 14.58,-5.46 14,-14.91 -0.13,-1.36 0.77,-2.71 1.21,-3.99 z"
       id="path330" />
    <path
       class="cls-12"
       d="m 237.08,49 c 1.15,1.87 2.48,3.07 2.35,4.09 -0.13,1.02 -1.7,1.9 -2.64,2.84 -1,-1.08 -2.53,-2 -2.73,-3.25 -0.15,-0.84 1.55,-1.99 3.02,-3.68 z"
       id="path332" />
    <path
       class="cls-5"
       d="m 231.54,77.84 -2,1.92 z"
       id="path334" />
    <path
       class="cls-5"
       d="m 233.57,76.88 -2,0.93 z"
       id="path336" />
    <path
       class="cls-5"
       d="M 229.52,79.79 228.7,81 Z"
       id="path338" />
    <path
       class="cls-28"
       d="m 260.09,77.67 1.35,-1 z"
       id="path340" />
    <path
       class="cls-28"
       d="m 261.4,76.75 1,-1.35 z"
       id="path342" />
  </g>
</svg>
