<svg xmlns="http://www.w3.org/2000/svg" xmlns:xlink="http://www.w3.org/1999/xlink" viewBox="0 0 855 601"><defs><style>.cls-1{fill:#f2e798;}.cls-1,.cls-27{stroke:#39b54a;}.cls-1,.cls-13,.cls-16,.cls-19,.cls-21,.cls-3,.cls-7{stroke-miterlimit:10;}.cls-2{fill:#808285;}.cls-2,.cls-3{stroke:#3c5073;}.cls-10,.cls-11,.cls-12,.cls-14,.cls-15,.cls-17,.cls-18,.cls-2,.cls-20,.cls-22,.cls-24,.cls-26,.cls-27,.cls-28,.cls-6,.cls-8,.cls-9{stroke-linecap:round;stroke-linejoin:round;}.cls-2,.cls-24,.cls-28,.cls-3{stroke-width:6px;}.cls-3{fill:#fff;}.cls-4{fill:url(#linear-gradient);}.cls-5{fill:url(#linear-gradient-2);}.cls-6{fill:#433832;stroke:#594a42;}.cls-10,.cls-12,.cls-13,.cls-14,.cls-15,.cls-16,.cls-17,.cls-18,.cls-19,.cls-20,.cls-21,.cls-6,.cls-7,.cls-8,.cls-9{stroke-width:2px;}.cls-7,.cls-9{fill:#2f3030;}.cls-13,.cls-7,.cls-8{stroke:#231f20;}.cls-8{fill:#99dff9;}.cls-12,.cls-14,.cls-15,.cls-9{stroke:#6d6e71;}.cls-10,.cls-13,.cls-21{fill:#939598;}.cls-10,.cls-16{stroke:#808285;}.cls-11,.cls-15,.cls-19,.cls-20,.cls-22,.cls-24,.cls-26,.cls-27,.cls-28{fill:none;}.cls-11,.cls-22{stroke:#263248;}.cls-11{stroke-width:4px;}.cls-12{fill:#d99a9d;}.cls-14{fill:#cceffc;}.cls-16{fill:#bcbec0;}.cls-17{fill:#4f518b;stroke:#294475;}.cls-18{fill:#a7a9ac;stroke:#58595b;}.cls-19,.cls-20,.cls-21{stroke:#939598;}.cls-22,.cls-26,.cls-27{stroke-width:5px;}.cls-23{fill:#253147;}.cls-24{stroke:#717f96;}.cls-25{fill:#8d99ab;}.cls-26{stroke:#a97c50;}.cls-28{stroke:#71aeab;}.cls-29{fill:#ba9673;}</style><linearGradient id="linear-gradient" x1="433.02" y1="445.43" x2="485.1" y2="393.17" gradientTransform="matrix(1, 0, 0, -1, -44.94, 534.53)" gradientUnits="userSpaceOnUse"><stop offset="0" stop-color="#387eb8"/><stop offset="1" stop-color="#366994"/></linearGradient><linearGradient id="linear-gradient-2" x1="465.05" y1="412.16" x2="520.98" y2="358.58" gradientTransform="matrix(1, 0, 0, -1, -44.94, 534.53)" gradientUnits="userSpaceOnUse"><stop offset="0" stop-color="#ffe052"/><stop offset="1" stop-color="#ffc331"/></linearGradient></defs><g id="Layer_1" data-name="Layer 1"><rect class="cls-1" x="0.5" y="0.5" width="854" height="600"/><line class="cls-2" x1="513.98" y1="61.09" x2="573.88" y2="38.34"/><line class="cls-2" x1="541.97" y1="133.85" x2="604.88" y2="133.85"/><line class="cls-2" x1="513.98" y1="205.19" x2="573.88" y2="227.94"/><line class="cls-2" x1="353.86" y1="205.19" x2="293.95" y2="227.94"/><line class="cls-2" x1="325.86" y1="132.43" x2="262.95" y2="132.43"/><line class="cls-2" x1="353.86" y1="61.09" x2="293.95" y2="38.34"/><circle class="cls-3" cx="433.92" cy="133.14" r="80.72"/><g id="layer1"><g id="g1894"><path id="path8615" class="cls-4" d="M430.49,79.7c-26.74,0-25.07,11.59-25.07,11.59l0,12H431v3.6H395.32s-17.11-1.94-17.11,25,14.93,26,14.93,26h8.92V145.45s-.49-14.93,14.69-14.93h25.31s14.21.23,14.21-13.74V93.68S458.43,79.7,430.49,79.7Zm-14.07,8.08a4.59,4.59,0,1,1-4.59,4.59A4.58,4.58,0,0,1,416.42,87.78Z" transform="translate(3.04 1.05)"/><path id="path8620" class="cls-5" d="M431.25,184.47c26.74,0,25.07-11.59,25.07-11.59l0-12H430.77v-3.61h35.65s17.11,1.94,17.11-25-14.93-26-14.93-26h-8.91v12.52s.48,14.93-14.7,14.93h-25.3s-14.22-.23-14.22,13.74v23.1S403.31,184.47,431.25,184.47Zm14.07-8.07a4.6,4.6,0,1,1,4.59-4.59A4.59,4.59,0,0,1,445.32,176.4Z" transform="translate(3.04 1.05)"/></g></g><path class="cls-6" d="M461.84,545.42a12.41,12.41,0,0,1,24.4,1.13v0l10.55.19.1-19.8-3.48-14.74H467l-9.23-18.65H430.64l-.72,27.74H367.66v24.15h9.53a12.4,12.4,0,0,1,24.19,0Z" transform="translate(3.04 1.05)"/><path class="cls-7" d="M462,545.52" transform="translate(3.04 1.05)"/><circle class="cls-7" cx="476.84" cy="549.95" r="10.22"/><circle class="cls-7" cx="392.27" cy="549.95" r="10.22"/><polygon class="cls-8" points="466.25 516.43 457.29 498.5 439.03 498.45 438.67 513.98 447.51 513.95 448.59 516.43 466.25 516.43"/><line class="cls-9" x1="439.67" y1="518.53" x2="443.69" y2="518.53"/><polygon class="cls-10" points="425.73 488.22 430.04 488.22 429.09 518.22 424.96 518.22 425.73 488.22"/><rect class="cls-11" x="354.77" y="477.35" width="161.09" height="94.82"/><path class="cls-12" d="M654,537a15.16,15.16,0,0,1,29.8,1.38v0l12.89.23L697,528l-4.53-13.52H656.86L646.28,494.3H601.69l-5.32,20.24H560.22l-6,6.66V537h11.64a15.16,15.16,0,0,1,29.56,0Z" transform="translate(3.04 1.05)"/><circle class="cls-13" cx="672.03" cy="540.98" r="9.79"/><circle class="cls-13" cx="583.61" cy="540.98" r="9.79"/><line class="cls-14" x1="630.26" y1="515.4" x2="654.35" y2="515.47"/><line class="cls-15" x1="631.25" y1="519.44" x2="636.17" y2="519.44"/><polygon class="cls-14" points="654.35 515.47 646.26 500.49 630.37 500.43 630.26 515.4 654.35 515.47"/><polygon class="cls-14" points="604.38 515.47 608.29 500.51 624.53 500.56 624.64 515.53 604.38 515.47"/><line class="cls-15" x1="617.91" y1="519.44" x2="622.84" y2="519.44"/><line class="cls-15" x1="631.25" y1="519.44" x2="636.17" y2="519.44"/><line class="cls-14" x1="630.26" y1="515.4" x2="654.35" y2="515.47"/><line class="cls-15" x1="631.25" y1="519.44" x2="636.17" y2="519.44"/><polygon class="cls-14" points="654.35 515.47 646.26 500.49 630.37 500.43 630.26 515.4 654.35 515.47"/><line class="cls-15" x1="631.25" y1="519.44" x2="636.17" y2="519.44"/><rect class="cls-11" x="548.08" y="477.35" width="161.09" height="94.82"/><circle class="cls-16" cx="207.83" cy="536.24" r="11.12"/><circle class="cls-16" cx="276.19" cy="536.24" r="11.12"/><path class="cls-17" d="M246.4,533.52l2.21-6.76,16.16-12a12.05,12.05,0,0,1,16.47,4.41,20.59,20.59,0,0,0-1.35,3,15.14,15.14,0,0,0-20.07,6.11l-12.63,5.21Z" transform="translate(3.04 1.05)"/><path class="cls-12" d="M239.47,521.89" transform="translate(3.04 1.05)"/><line class="cls-18" x1="263.96" y1="517.69" x2="252.8" y2="502.15"/><path class="cls-17" d="M261.61,517.17l-14.22-3.09L227,518l-26.09-1.75,1.47,4.43a16.68,16.68,0,0,1,2.13-.15,15.15,15.15,0,0,1,14.78,11.79l26.64,1.23h.49l2.2-6.76L261.84,517l-.14.07" transform="translate(3.04 1.05)"/><rect class="cls-11" x="161.46" y="477.35" width="161.09" height="94.82"/><path class="cls-15" d="M439.6,356" transform="translate(3.04 1.05)"/><circle class="cls-19" cx="382.82" cy="394.33" r="10.88"/><circle class="cls-19" cx="486.22" cy="394.33" r="10.88"/><path class="cls-20" d="M468.39,389.16a15.16,15.16,0,0,1,29.8,1.38v0l12.88.23.13-27.18H474.69l-11.27-22.8H433l-2.59,21.89h-77v26.5H365a15.16,15.16,0,0,1,29.55,0Z" transform="translate(3.04 1.05)"/><path class="cls-21" d="M468.57,390.14" transform="translate(3.04 1.05)"/><polygon class="cls-20" points="470.36 364.05 462.42 347.98 440.96 347.98 439.13 363.42 470.36 364.05"/><path class="cls-21" d="M439.09,374.11" transform="translate(3.04 1.05)"/><line class="cls-20" x1="440.57" y1="368.36" x2="445.49" y2="368.36"/><rect class="cls-11" x="345.07" y="326.11" width="180.51" height="94.82"/><polyline class="cls-22" points="420.68 448.74 432.24 460.3 443.67 448.87"/><line class="cls-22" x1="432.18" y1="437.37" x2="432.18" y2="460.3"/><polyline class="cls-22" points="255.37 436.7 251.14 452.49 266.75 456.68"/><line class="cls-22" x1="327.43" y1="408.37" x2="251.11" y2="452.44"/><polyline class="cls-22" points="615.98 436.7 620.21 452.49 604.6 456.68"/><line class="cls-22" x1="543.93" y1="408.37" x2="620.24" y2="452.44"/><polyline class="cls-22" points="422.18 294.72 433.74 306.28 445.17 294.85"/><line class="cls-22" x1="433.67" y1="283.36" x2="433.67" y2="306.28"/><path class="cls-23" d="M381.94,266.8a6,6,0,0,1-4.78-1.82,5.67,5.67,0,0,1-1.07-4.89l.69-4.54a7.73,7.73,0,0,1,2.66-4.89,8.06,8.06,0,0,1,5.37-1.81,6,6,0,0,1,4.79,1.79,5.75,5.75,0,0,1,1.1,4.88l-.73,4.57a7.71,7.71,0,0,1-2.66,4.89A8.07,8.07,0,0,1,381.94,266.8Zm.48-3a4,4,0,0,0,2.77-.94,4.6,4.6,0,0,0,1.38-2.77l.7-4.54a3.48,3.48,0,0,0-.48-2.77,3,3,0,0,0-2.45-.94,4,4,0,0,0-2.77.94,4.59,4.59,0,0,0-1.39,2.77l-.69,4.54a3.48,3.48,0,0,0,.47,2.77A3,3,0,0,0,382.42,263.8Z" transform="translate(3.04 1.05)"/><path class="cls-23" d="M402.1,266.8a4.41,4.41,0,0,1-3-1,3.29,3.29,0,0,1-1-2.67h0l-.53,3.31H394.1l3.65-23h3.4l-.78,4.95-.76,4h.13a4.72,4.72,0,0,1,1.9-2.66,5.72,5.72,0,0,1,3.32-1,4.38,4.38,0,0,1,3.86,1.76,6.36,6.36,0,0,1,.77,4.79l-.75,4.88a8.11,8.11,0,0,1-2.32,4.77A6.22,6.22,0,0,1,402.1,266.8Zm-.7-3a3.86,3.86,0,0,0,2.7-1,4.77,4.77,0,0,0,1.37-2.79l.69-4.54a3.52,3.52,0,0,0-.47-2.77,2.85,2.85,0,0,0-2.4-1,3.85,3.85,0,0,0-2.69,1,4.6,4.6,0,0,0-1.37,2.75l-.69,4.54a3.52,3.52,0,0,0,.47,2.77A2.84,2.84,0,0,0,401.4,263.84Z" transform="translate(3.04 1.05)"/><path class="cls-23" d="M412.08,272.15l.5-3.15H417a4,4,0,0,0,4.25-3.62l2.05-13.1h-7.09l.51-3.12h10.48l-2.58,16.25a7.6,7.6,0,0,1-2.66,4.93,8.18,8.18,0,0,1-5.4,1.81Zm13.7-26a2.14,2.14,0,0,1-1.65-.58,1.82,1.82,0,0,1-.43-1.56,2.42,2.42,0,0,1,.9-1.59,2.92,2.92,0,0,1,1.87-.59,2.22,2.22,0,0,1,1.67.59,1.75,1.75,0,0,1,.41,1.59,2.36,2.36,0,0,1-.9,1.56A2.92,2.92,0,0,1,425.78,246.17Z" transform="translate(3.04 1.05)"/><path class="cls-23" d="M438.63,266.8a5.92,5.92,0,0,1-4.76-1.85,5.77,5.77,0,0,1-1.1-4.86l.69-4.54A8.26,8.26,0,0,1,434.9,252a7.37,7.37,0,0,1,2.78-2.35,8.52,8.52,0,0,1,3.81-.83,6,6,0,0,1,4.77,1.84,5.65,5.65,0,0,1,1.09,4.86l-.47,3.09H436.3l-.25,1.45q-.65,3.93,3.05,3.93,3,0,3.78-2h3.37a6.3,6.3,0,0,1-2.77,3.51A9,9,0,0,1,438.63,266.8Zm-1.86-11.25-.13.79,7.31,0,.13-.79a4,4,0,0,0-.46-2.94,2.93,2.93,0,0,0-2.54-1,4.07,4.07,0,0,0-2.91,1A5.15,5.15,0,0,0,436.77,255.55Z" transform="translate(3.04 1.05)"/><path class="cls-23" d="M457.65,266.8a6.23,6.23,0,0,1-4.87-1.8,5.61,5.61,0,0,1-1.11-4.91l.69-4.54a7.65,7.65,0,0,1,2.71-4.91,8.31,8.31,0,0,1,5.44-1.79,6.39,6.39,0,0,1,4.74,1.63,5.23,5.23,0,0,1,1.31,4.48h-3.4a2.72,2.72,0,0,0-.71-2.3,3.33,3.33,0,0,0-2.44-.82,4.15,4.15,0,0,0-2.83,1,4.38,4.38,0,0,0-1.39,2.72l-.72,4.57a3.31,3.31,0,0,0,.52,2.75,3.11,3.11,0,0,0,2.53,1,4.36,4.36,0,0,0,2.69-.81,3.94,3.94,0,0,0,1.44-2.34h3.4a7.24,7.24,0,0,1-2.73,4.49A8.42,8.42,0,0,1,457.65,266.8Z" transform="translate(3.04 1.05)"/><path class="cls-23" d="M478.37,266.48a4.35,4.35,0,0,1-3.48-1.29,4.25,4.25,0,0,1-.74-3.62l1.48-9.32h-4.79l.48-3.09h4.78l.76-4.72h3.4l-.76,4.72h6.81l-.51,3.09H479l-1.48,9.32c-.21,1.22.27,1.82,1.45,1.82h4.72l-.47,3.09Z" transform="translate(3.04 1.05)"/><rect class="cls-24" x="144.89" y="245.55" width="41.09" height="30.73"/><rect class="cls-24" x="144.89" y="214.81" width="41.09" height="30.73"/><rect class="cls-24" x="144.89" y="184.08" width="41.09" height="30.73"/><rect class="cls-24" x="144.89" y="153.35" width="41.09" height="30.73"/><rect class="cls-24" x="122.76" y="85.78" width="41.09" height="30.73" transform="translate(-28.33 86.26) rotate(-30)"/><path class="cls-24" d="M153.16,114.57" transform="translate(3.04 1.05)"/><path class="cls-24" d="M178.4,139.47a26.28,26.28,0,0,0-5.16-15.7" transform="translate(3.04 1.05)"/><polyline class="cls-24" points="169.69 130.72 172.85 118.93 184.23 121.98"/><path class="cls-25" d="M658.46,181.75v-2.36h34v2.36Z" transform="translate(3.04 1.05)"/><path class="cls-25" d="M697,178.6V176h6.14V163.86h-5.36v-2.58H706V176h5.83v2.58Zm7.24-20.44a2.35,2.35,0,0,1-1.64-.53,1.85,1.85,0,0,1-.6-1.45,1.94,1.94,0,0,1,.6-1.5,2.72,2.72,0,0,1,3.28,0,2,2,0,0,1,.59,1.5,1.88,1.88,0,0,1-.59,1.45A2.36,2.36,0,0,1,704.28,158.16Z" transform="translate(3.04 1.05)"/><path class="cls-25" d="M716.15,178.6V161.28H719v3.31h0a3.83,3.83,0,0,1,1.41-2.68,5,5,0,0,1,3.18-.94,5.49,5.49,0,0,1,4.16,1.6,6,6,0,0,1,1.54,4.38V178.6h-2.83V167.27a3.86,3.86,0,0,0-1-2.85,3.61,3.61,0,0,0-2.7-1,3.68,3.68,0,0,0-2.78,1.07,4.33,4.33,0,0,0-1,3.09v11Z" transform="translate(3.04 1.05)"/><path class="cls-25" d="M734.82,178.6V176H741V163.86h-5.35v-2.58h8.19V176h5.82v2.58Zm7.25-20.44a2.36,2.36,0,0,1-1.64-.53,1.85,1.85,0,0,1-.6-1.45,1.94,1.94,0,0,1,.6-1.5,2.72,2.72,0,0,1,3.28,0,2,2,0,0,1,.59,1.5,1.88,1.88,0,0,1-.59,1.45A2.36,2.36,0,0,1,742.07,158.16Z" transform="translate(3.04 1.05)"/><path class="cls-25" d="M762.38,178.6a4.85,4.85,0,0,1-3.48-1.19,4.47,4.47,0,0,1-1.24-3.37V163.86h-4.89v-2.58h4.89V156.4h2.83v4.88h6.93v2.58h-6.93V174q0,2,1.89,2h4.72v2.58Z" transform="translate(3.04 1.05)"/><path class="cls-25" d="M771.83,181.75v-2.36h34v2.36Z" transform="translate(3.04 1.05)"/><polyline class="cls-26" points="646.75 322.36 654.2 316.67 646.83 311.04"/><line class="cls-26" x1="634.12" y1="316.7" x2="649.24" y2="316.7"/><polyline class="cls-27" points="641.57 327.81 634.12 333.5 641.49 339.13"/><line class="cls-27" x1="654.2" y1="333.47" x2="639.08" y2="333.47"/><rect class="cls-28" x="593.31" y="308.34" width="37.78" height="33.49"/><polyline class="cls-26" points="712.21 322.36 719.65 316.67 712.29 311.04"/><line class="cls-26" x1="699.58" y1="316.7" x2="714.69" y2="316.7"/><polyline class="cls-27" points="707.03 327.81 699.58 333.5 706.94 339.13"/><line class="cls-27" x1="719.65" y1="333.47" x2="704.54" y2="333.47"/><polyline class="cls-26" points="776.5 321.02 783.95 315.32 776.58 309.7"/><line class="cls-26" x1="763.87" y1="315.36" x2="778.99" y2="315.36"/><polyline class="cls-27" points="771.32 326.46 763.87 332.16 771.24 337.79"/><line class="cls-27" x1="783.95" y1="332.12" x2="768.83" y2="332.12"/><rect class="cls-28" x="657.81" y="308.34" width="37.78" height="33.49"/><rect class="cls-28" x="722.77" y="306.37" width="37.78" height="33.49"/><rect class="cls-28" x="787.27" y="306.37" width="37.78" height="33.49"/><path class="cls-29" d="M80.2,388.07v-5l.06-3.94h-.09a3.93,3.93,0,0,1-1.48,2.65,5.12,5.12,0,0,1-3.22,1A5.26,5.26,0,0,1,71.33,381a6.87,6.87,0,0,1-1.53-4.72v-5.07a6.77,6.77,0,0,1,1.55-4.71,5.25,5.25,0,0,1,4.12-1.72,5.18,5.18,0,0,1,3.22,1,3.86,3.86,0,0,1,1.48,2.66h0v-3.3H83v23Zm-3.78-7.82a3.55,3.55,0,0,0,2.77-1.1,4.35,4.35,0,0,0,1-3v-4.72a4.36,4.36,0,0,0-1-3.06,3.55,3.55,0,0,0-2.77-1.1,3.62,3.62,0,0,0-2.79,1.07,4.38,4.38,0,0,0-1,3.09v4.72a4.37,4.37,0,0,0,1,3.08A3.59,3.59,0,0,0,76.42,380.25Z" transform="translate(3.04 1.05)"/><path class="cls-29" d="M87.82,385.55v-2.37h15.11v2.37Z" transform="translate(3.04 1.05)"/><path class="cls-29" d="M113.73,382.65a6.79,6.79,0,0,1-4.25-1.21,4.66,4.66,0,0,1-1.82-3.29h2.83a2.22,2.22,0,0,0,1,1.44,4.05,4.05,0,0,0,2.22.54h1.33a3.87,3.87,0,0,0,2.49-.68,2.23,2.23,0,0,0,.81-1.81c0-1.43-1-2.3-2.92-2.61l-2.34-.38a7.28,7.28,0,0,1-3.79-1.59,4.33,4.33,0,0,1-1.24-3.35,4.49,4.49,0,0,1,1.48-3.61,6.63,6.63,0,0,1,4.44-1.28h1.19a6.34,6.34,0,0,1,4,1.17,4.77,4.77,0,0,1,1.83,3.15h-2.83a2.12,2.12,0,0,0-1-1.31,3.79,3.79,0,0,0-2-.49H114a3.72,3.72,0,0,0-2.35.6,2.19,2.19,0,0,0-.74,1.8,1.88,1.88,0,0,0,.63,1.57,4.3,4.3,0,0,0,2,.73l2.33.37a7.67,7.67,0,0,1,4.08,1.64,4.53,4.53,0,0,1,1.28,3.47,4.79,4.79,0,0,1-1.53,3.76,6.75,6.75,0,0,1-4.61,1.37Z" transform="translate(3.04 1.05)"/><path class="cls-29" d="M133.16,382.65a6.72,6.72,0,0,1-4.95-1.78,6.47,6.47,0,0,1-1.82-4.83v-4.6a6.44,6.44,0,0,1,1.82-4.85,7.82,7.82,0,0,1,9.91,0,6.4,6.4,0,0,1,1.82,4.82V376a6.47,6.47,0,0,1-1.82,4.83A6.74,6.74,0,0,1,133.16,382.65Zm0-2.52a3.93,3.93,0,0,0,2.9-1,4.14,4.14,0,0,0,1-3v-4.6a4.17,4.17,0,0,0-1-3.06,4.54,4.54,0,0,0-5.78,0,4.13,4.13,0,0,0-1.05,3.06V376a4.11,4.11,0,0,0,1.05,3A4,4,0,0,0,133.16,380.13Z" transform="translate(3.04 1.05)"/><path class="cls-29" d="M146.11,382.4V365.08h2.77v3.08a4.21,4.21,0,0,1,4.56-3.4,5.71,5.71,0,0,1,4.37,1.72,6.48,6.48,0,0,1,1.62,4.64v1h-2.84v-.78a4.51,4.51,0,0,0-1-3.14,4.15,4.15,0,0,0-5.63,0,4.37,4.37,0,0,0-1,3.12v11Z" transform="translate(3.04 1.05)"/><path class="cls-29" d="M172.84,382.4a4.81,4.81,0,0,1-3.48-1.2,4.45,4.45,0,0,1-1.24-3.37V367.66h-4.88v-2.58h4.88V360.2H171v4.88h6.93v2.58H171v10.17q0,2,1.89,2h4.73v2.59Z" transform="translate(3.04 1.05)"/><path class="cls-29" d="M195.68,386.18a12.08,12.08,0,0,1-7-4.35,12.65,12.65,0,0,1-2.49-7.94v-5.66a13.15,13.15,0,0,1,1.15-5.59,11.53,11.53,0,0,1,3.27-4.24,12.87,12.87,0,0,1,5-2.46v2.68a7.83,7.83,0,0,0-3.5,1.81,9.08,9.08,0,0,0-2.3,3.32,11.61,11.61,0,0,0-.82,4.48v5.66a11.74,11.74,0,0,0,.8,4.41,8.69,8.69,0,0,0,2.3,3.29,8,8,0,0,0,3.52,1.78Z" transform="translate(3.04 1.05)"/><path class="cls-29" d="M202.92,386.18v-2.81a7.85,7.85,0,0,0,3.52-1.78,8.66,8.66,0,0,0,2.29-3.29,11.74,11.74,0,0,0,.8-4.41v-5.66a11.61,11.61,0,0,0-.82-4.48,9,9,0,0,0-2.3-3.32,7.79,7.79,0,0,0-3.49-1.81v-2.68a12.78,12.78,0,0,1,5,2.46,11.83,11.83,0,0,1,3.26,4.24,13.3,13.3,0,0,1,1.15,5.59v5.66a12.65,12.65,0,0,1-2.49,7.94A12.14,12.14,0,0,1,202.92,386.18Z" transform="translate(3.04 1.05)"/></g></svg>