<svg xmlns="http://www.w3.org/2000/svg" viewBox="0 0 854 600"><defs><style>.cls-1{fill:#dcd2e2;}.cls-2{fill:#808285;stroke-width:6px;}.cls-11,.cls-14,.cls-18,.cls-19,.cls-2,.cls-21,.cls-22,.cls-28,.cls-9{stroke:#3c5073;}.cls-12,.cls-13,.cls-15,.cls-16,.cls-17,.cls-18,.cls-19,.cls-2,.cls-22,.cls-23,.cls-24,.cls-25,.cls-26{stroke-linecap:round;}.cls-10,.cls-11,.cls-12,.cls-13,.cls-14,.cls-15,.cls-16,.cls-17,.cls-18,.cls-19,.cls-2,.cls-22,.cls-23,.cls-24,.cls-25,.cls-26,.cls-28,.cls-9{stroke-linejoin:round;}.cls-3{fill:#00599c;}.cls-4{fill:#004482;}.cls-5{fill:#659ad2;}.cls-6{fill:#fff;}.cls-7{fill:#b2cbc8;}.cls-8{fill:#b98fca;}.cls-10,.cls-11,.cls-12,.cls-13,.cls-14,.cls-15,.cls-16,.cls-17,.cls-18,.cls-22,.cls-9{fill:#e6e7e8;}.cls-25,.cls-26,.cls-28,.cls-9{stroke-width:4px;}.cls-10,.cls-24,.cls-25{stroke:#a7a9ac;}.cls-10,.cls-21,.cls-22,.cls-23,.cls-24{stroke-width:2px;}.cls-11,.cls-18,.cls-19{stroke-width:3px;}.cls-12{stroke:#bcbec0;stroke-width:10px;}.cls-13{stroke:#c3dd94;}.cls-13,.cls-15,.cls-16,.cls-17{stroke-width:8px;}.cls-15{stroke:#a5d6ff;}.cls-16{stroke:#d1d3d4;}.cls-17{stroke:#ffbc51;}.cls-19,.cls-24,.cls-28{fill:none;}.cls-20,.cls-21{fill:#a7a9ac;}.cls-21{stroke-miterlimit:10;}.cls-23{fill:#ffd578;stroke:#ffd578;}.cls-25,.cls-26{fill:#58595b;}.cls-26{stroke:#6d6e71;}.cls-27{fill:#414042;}.cls-29{fill:#6e4042;}.cls-30{fill:#a6d2b7;}.cls-31{fill:#c4bece;}</style></defs><g id="Layer_2" data-name="Layer 2"><rect class="cls-1" width="854" height="600"/></g><g id="Layer_1" data-name="Layer 1"><line class="cls-2" x1="531.28" y1="66.26" x2="591.19" y2="43.5"/><line class="cls-2" x1="559.28" y1="139.02" x2="622.19" y2="139.02"/><line class="cls-2" x1="531.28" y1="210.36" x2="591.19" y2="233.11"/><line class="cls-2" x1="371.16" y1="211.07" x2="311.26" y2="233.82"/><line class="cls-2" x1="343.17" y1="138.31" x2="280.26" y2="138.31"/><line class="cls-2" x1="371.16" y1="66.97" x2="311.26" y2="44.21"/><path class="cls-3" d="M521.07,180.66a12.74,12.74,0,0,0,1.84-6.17V105.42a12.81,12.81,0,0,0-1.84-6.18L450.56,140Z" transform="translate(0 0)"/><path class="cls-4" d="M456.83,219.88l59.82-34.54a12.73,12.73,0,0,0,4.42-4.68L450.56,140l-70.51,40.71a12.81,12.81,0,0,0,4.42,4.68l59.83,34.54A13.9,13.9,0,0,0,456.83,219.88Z" transform="translate(0 0)"/><path class="cls-5" d="M521.07,99.24a12.88,12.88,0,0,0-4.42-4.68L456.83,60a13.9,13.9,0,0,0-12.53,0L384.47,94.56a13.92,13.92,0,0,0-6.26,10.86v69.07a12.74,12.74,0,0,0,1.84,6.17L450.56,140Z" transform="translate(0 0)"/><path class="cls-6" d="M450.56,188.19a48.24,48.24,0,1,1,41.77-72.37L471.46,127.9a24.12,24.12,0,1,0,0,24.1l20.87,12.08A48.41,48.41,0,0,1,450.56,188.19Z" transform="translate(0 0)"/><polygon class="cls-6" points="498.8 137.27 493.44 137.27 493.44 131.91 488.08 131.91 488.08 137.27 482.72 137.27 482.72 142.63 488.08 142.63 488.08 147.99 493.44 147.99 493.44 142.63 498.8 142.63 498.8 137.27"/><polygon class="cls-6" points="518.89 137.27 513.53 137.27 513.53 131.91 508.18 131.91 508.18 137.27 502.82 137.27 502.82 142.63 508.18 142.63 508.18 147.99 513.53 147.99 513.53 142.63 518.89 142.63 518.89 137.27"/><path class="cls-7" d="M99,478.23,70.61,464.05v-6.6L99,443.27V449L78.52,459q-1.24.58-2.34,1a13.92,13.92,0,0,1-1.61.56,15.32,15.32,0,0,1,1.71.56,21.24,21.24,0,0,1,2.24,1L99,472.29Z" transform="translate(0 0)"/><path class="cls-8" d="M121.4,482.52V439.78H108.2v-5.41h32.32v5.41H127.33v42.74Z" transform="translate(0 0)"/><path class="cls-7" d="M149.76,478.23v-5.74l20.44-10c.84-.4,1.62-.74,2.34-1a17.08,17.08,0,0,1,1.62-.56,11.64,11.64,0,0,1-1.72-.56,19.23,19.23,0,0,1-2.24-1l-20.44-10.09v-5.94l28.36,14.18v6.6Z" transform="translate(0 0)"/><rect class="cls-9" x="229.21" y="267.2" width="442.69" height="288.71"/><path class="cls-10" d="M496.19,342.39" transform="translate(0 0)"/><line class="cls-11" x1="323.5" y1="269.51" x2="323.5" y2="558.22"/><line class="cls-11" x1="520.66" y1="269.51" x2="520.66" y2="558.22"/><path class="cls-12" d="M245.66,290.81H306" transform="translate(0 0)"/><path class="cls-12" d="M245.66,316.21H306" transform="translate(0 0)"/><path class="cls-12" d="M245.66,367H306" transform="translate(0 0)"/><path class="cls-12" d="M265.76,392.4H306" transform="translate(0 0)"/><path class="cls-12" d="M265.76,417.79H306" transform="translate(0 0)"/><path class="cls-12" d="M265.76,341.6H306" transform="translate(0 0)"/><path class="cls-13" d="M370,289.56h60.3" transform="translate(0 0)"/><path class="cls-13" d="M370,315.48h60.3" transform="translate(0 0)"/><line class="cls-14" x1="352.69" y1="267.2" x2="352.69" y2="555.92"/><path class="cls-15" d="M370,365.78h103" transform="translate(0 0)"/><path class="cls-16" d="M403.72,391.7H464" transform="translate(0 0)"/><path class="cls-17" d="M403.72,417.62H464" transform="translate(0 0)"/><path class="cls-15" d="M370,539.51h11" transform="translate(0 0)"/><path class="cls-15" d="M370,487.67H458" transform="translate(0 0)"/><path class="cls-17" d="M403.72,513.59h37.81" transform="translate(0 0)"/><path class="cls-15" d="M371.88,441.62h11" transform="translate(0 0)"/><line class="cls-18" x1="521.76" y1="326.72" x2="668.49" y2="326.72"/><line class="cls-18" x1="521.76" y1="369.95" x2="668.49" y2="369.95"/><line class="cls-18" x1="521.76" y1="413.18" x2="668.49" y2="413.18"/><line class="cls-18" x1="521.76" y1="456.41" x2="668.49" y2="456.41"/><line class="cls-18" x1="520.66" y1="499.64" x2="671.91" y2="499.64"/><polyline class="cls-19" points="545.24 284.41 559.66 298.82 545.49 313"/><polyline class="cls-19" points="584.39 284.41 598.81 298.82 584.64 313"/><polyline class="cls-19" points="595.94 284.41 610.36 298.82 596.19 313"/><polyline class="cls-19" points="635.2 284.41 635.2 306.84 649.19 306.84"/><polyline class="cls-19" points="643.15 300.7 649.41 306.85 643.36 313"/><path class="cls-20" d="M536.71,359.22a6.31,6.31,0,0,1-4.65-1.7,6,6,0,0,1-1.73-4.54v-9.29a6,6,0,0,1,1.73-4.54,7.22,7.22,0,0,1,9.31,0,6,6,0,0,1,1.73,4.54V353a6.64,6.64,0,0,1-.78,3.29,5.48,5.48,0,0,1-2.22,2.18A7.13,7.13,0,0,1,536.71,359.22Zm0-2.23a3.71,3.71,0,0,0,2.81-1.12,4.07,4.07,0,0,0,1.06-2.89v-9.29a4.07,4.07,0,0,0-1.06-2.89,4.07,4.07,0,0,0-5.61,0,4.07,4.07,0,0,0-1.06,2.89V353a4.07,4.07,0,0,0,1.06,2.89A3.7,3.7,0,0,0,536.71,357Zm0-6.94a1.68,1.68,0,0,1-1.26-.5,1.78,1.78,0,0,1-.48-1.3,1.71,1.71,0,0,1,.48-1.27,1.94,1.94,0,0,1,2.53,0,1.71,1.71,0,0,1,.48,1.27,1.78,1.78,0,0,1-.48,1.3A1.69,1.69,0,0,1,536.71,350.05Z" transform="translate(0 0)"/><path class="cls-20" d="M546.88,358.93l5.66-8.22L547.22,343h3.08l3.16,4.94a6.47,6.47,0,0,1,.4.7l.3.61a5.68,5.68,0,0,1,.28-.61,5.12,5.12,0,0,1,.39-.7L558,343h3.05l-5.31,7.78,5.63,8.19h-3.08l-3.42-5.22a4.76,4.76,0,0,1-.39-.75c-.13-.28-.24-.5-.34-.68-.08.18-.19.4-.33.68a7.07,7.07,0,0,1-.45.75l-3.46,5.22Z" transform="translate(0 0)"/><path class="cls-20" d="M574.74,358.93v-4.64h-9.58v-4.1l7.73-12.45h2.87l-8,13v1.2h7v-5.17h2.62v12.19Z" transform="translate(0 0)"/><path class="cls-20" d="M588.91,359.22a6.56,6.56,0,0,1-4.24-1.33,5.31,5.31,0,0,1-1.94-3.6h2.61a2.68,2.68,0,0,0,1.07,1.93,4.24,4.24,0,0,0,2.53.68,3.55,3.55,0,0,0,2.74-1,3.94,3.94,0,0,0,.92-2.79v-2.06a3.92,3.92,0,0,0-.92-2.78,3.51,3.51,0,0,0-2.71-1,3.3,3.3,0,0,0-3.19,2.18h-2.62l.15-11.73h11.15v2.38h-8.63l-.08,7.05h.11a2.55,2.55,0,0,1,1.29-1.59,5.24,5.24,0,0,1,2.6-.58,5,5,0,0,1,4,1.58,6.48,6.48,0,0,1,1.44,4.48v2.06a6,6,0,0,1-1.65,4.46A6.36,6.36,0,0,1,588.91,359.22Z" transform="translate(0 0)"/><path class="cls-20" d="M606.07,359.22a7.06,7.06,0,0,1-3.36-.77,5.55,5.55,0,0,1-2.22-2.13,6.35,6.35,0,0,1-.78-3.2h2.61a3.47,3.47,0,0,0,3.78,3.78,3.64,3.64,0,0,0,2.78-1,3.78,3.78,0,0,0,1-2.73v-1.45a3.44,3.44,0,0,0-3.77-3.77h-2.3v-2.27l5.14-5.51h-8.36v-2.38h11.23v2.44l-5.13,5.43a6,6,0,0,1,4.23,1.77,5.89,5.89,0,0,1,1.57,4.29v1.45a6.16,6.16,0,0,1-.8,3.2,5.51,5.51,0,0,1-2.25,2.13A7.09,7.09,0,0,1,606.07,359.22Z" transform="translate(0 0)"/><path class="cls-20" d="M536.71,402.19a6.35,6.35,0,0,1-4.65-1.7,6.06,6.06,0,0,1-1.73-4.55v-9.29a6.05,6.05,0,0,1,1.73-4.54,7.22,7.22,0,0,1,9.31,0,6.05,6.05,0,0,1,1.73,4.54v9.29a6.71,6.71,0,0,1-.78,3.3,5.54,5.54,0,0,1-2.22,2.18A7.13,7.13,0,0,1,536.71,402.19Zm0-2.24a3.68,3.68,0,0,0,2.81-1.12,4.05,4.05,0,0,0,1.06-2.89v-9.29a4,4,0,0,0-1.06-2.88,4.07,4.07,0,0,0-5.61,0,4,4,0,0,0-1.06,2.88v9.29a4.05,4.05,0,0,0,1.06,2.89A3.67,3.67,0,0,0,536.71,400Zm0-6.94a1.67,1.67,0,0,1-1.26-.49,1.81,1.81,0,0,1-.48-1.31,1.75,1.75,0,1,1,3.49,0,1.81,1.81,0,0,1-.48,1.31A1.68,1.68,0,0,1,536.71,393Z" transform="translate(0 0)"/><path class="cls-20" d="M546.88,401.9l5.66-8.22-5.32-7.75h3.08l3.16,4.93c.14.22.27.45.4.7s.22.46.3.61c.06-.15.15-.36.28-.61a6.68,6.68,0,0,1,.39-.7l3.19-4.93h3.05l-5.31,7.78,5.63,8.19h-3.08l-3.42-5.23a4.63,4.63,0,0,1-.39-.74c-.13-.28-.24-.51-.34-.68l-.33.68a6.86,6.86,0,0,1-.45.74l-3.46,5.23Z" transform="translate(0 0)"/><path class="cls-20" d="M571.58,402.19a7.36,7.36,0,0,1-3.61-.86,6.06,6.06,0,0,1-2.41-2.38,7.1,7.1,0,0,1-.86-3.53,8.69,8.69,0,0,1,.51-2.86,18.68,18.68,0,0,1,1.41-3.06l5-8.8h2.84l-5.74,9.79.11.08a3.61,3.61,0,0,1,1.51-1.24,5.19,5.19,0,0,1,2.24-.47,5.73,5.73,0,0,1,3.06.81,5.64,5.64,0,0,1,2,2.25,7.49,7.49,0,0,1,.72,3.39,7.38,7.38,0,0,1-.85,3.61,6.13,6.13,0,0,1-2.38,2.41A7.25,7.25,0,0,1,571.58,402.19Zm0-2.33a4,4,0,0,0,3.06-1.23,5.11,5.11,0,0,0,0-6.53,4.4,4.4,0,0,0-6.12,0,5.11,5.11,0,0,0,0,6.53A4,4,0,0,0,571.55,399.86Z" transform="translate(0 0)"/><path class="cls-20" d="M589,402.19a6.36,6.36,0,0,1-4.66-1.7,6.1,6.1,0,0,1-1.73-4.55v-9.29a6.09,6.09,0,0,1,1.73-4.54,7.24,7.24,0,0,1,9.32,0,6.09,6.09,0,0,1,1.73,4.54v9.29a6.71,6.71,0,0,1-.79,3.3,5.42,5.42,0,0,1-2.22,2.18A7.09,7.09,0,0,1,589,402.19Zm0-2.24a3.67,3.67,0,0,0,2.8-1.12,4,4,0,0,0,1.06-2.89v-9.29a4,4,0,0,0-1.06-2.88,4.06,4.06,0,0,0-5.6,0,4,4,0,0,0-1.06,2.88v9.29a4,4,0,0,0,1.06,2.89A3.65,3.65,0,0,0,589,400Zm0-6.94a1.67,1.67,0,0,1-1.26-.49,1.81,1.81,0,0,1-.48-1.31,1.74,1.74,0,1,1,3.48,0,1.81,1.81,0,0,1-.48,1.31A1.67,1.67,0,0,1,589,393Z" transform="translate(0 0)"/><path class="cls-20" d="M606.39,402.19a6.36,6.36,0,0,1-4.66-1.7,6.1,6.1,0,0,1-1.73-4.55v-9.29a6.09,6.09,0,0,1,1.73-4.54,7.22,7.22,0,0,1,9.31,0,6.05,6.05,0,0,1,1.73,4.54v9.29a6.71,6.71,0,0,1-.78,3.3,5.42,5.42,0,0,1-2.22,2.18A7.11,7.11,0,0,1,606.39,402.19Zm0-2.24a3.67,3.67,0,0,0,2.8-1.12,4.05,4.05,0,0,0,1.06-2.89v-9.29a4,4,0,0,0-1.06-2.88,4.07,4.07,0,0,0-5.61,0,4,4,0,0,0-1.06,2.88v9.29a4.05,4.05,0,0,0,1.06,2.89A3.68,3.68,0,0,0,606.39,400Zm0-6.94a1.68,1.68,0,0,1-1.27-.49,1.81,1.81,0,0,1-.48-1.31,1.75,1.75,0,1,1,3.49,0,1.81,1.81,0,0,1-.48,1.31A1.67,1.67,0,0,1,606.39,393Z" transform="translate(0 0)"/><path class="cls-20" d="M536.71,445.15a6.35,6.35,0,0,1-4.65-1.7,6.05,6.05,0,0,1-1.73-4.54v-9.29a6,6,0,0,1,1.73-4.54,7.22,7.22,0,0,1,9.31,0,6,6,0,0,1,1.73,4.54v9.29a6.67,6.67,0,0,1-.78,3.29,5.48,5.48,0,0,1-2.22,2.18A7.13,7.13,0,0,1,536.71,445.15Zm0-2.24a3.71,3.71,0,0,0,2.81-1.11,4.07,4.07,0,0,0,1.06-2.89v-9.29a4.07,4.07,0,0,0-1.06-2.89,4.07,4.07,0,0,0-5.61,0,4.07,4.07,0,0,0-1.06,2.89v9.29a4.07,4.07,0,0,0,1.06,2.89A3.7,3.7,0,0,0,536.71,442.91Zm0-6.93a1.68,1.68,0,0,1-1.26-.5,1.78,1.78,0,0,1-.48-1.3,1.75,1.75,0,1,1,3.49,0,1.78,1.78,0,0,1-.48,1.3A1.69,1.69,0,0,1,536.71,436Z" transform="translate(0 0)"/><path class="cls-20" d="M546.88,444.86l5.66-8.22-5.32-7.75h3.08l3.16,4.94a7.38,7.38,0,0,1,.4.69c.12.26.22.46.3.61.06-.15.15-.35.28-.61a5.65,5.65,0,0,1,.39-.69l3.19-4.94h3.05l-5.31,7.78,5.63,8.19h-3.08l-3.42-5.23a4.63,4.63,0,0,1-.39-.74c-.13-.28-.24-.5-.34-.68-.08.18-.19.4-.33.68a6.86,6.86,0,0,1-.45.74l-3.46,5.23Z" transform="translate(0 0)"/><path class="cls-20" d="M568.1,444.86l7.57-18.81h-8.18v3.42h-2.62v-5.8h13.5v2.44L571,444.86Z" transform="translate(0 0)"/><path class="cls-20" d="M586.07,444.86l5.69-9.78-.12-.09a3.66,3.66,0,0,1-1.48,1.25,5,5,0,0,1-2.21.46,5.7,5.7,0,0,1-3.05-.81,5.55,5.55,0,0,1-2-2.27,7.2,7.2,0,0,1-.74-3.36,7.39,7.39,0,0,1,.85-3.62,6,6,0,0,1,2.4-2.41,7.2,7.2,0,0,1,3.57-.85,7.35,7.35,0,0,1,3.61.85A6,6,0,0,1,595,426.6a7.08,7.08,0,0,1,.86,3.54,8.45,8.45,0,0,1-.52,2.86,20.62,20.62,0,0,1-1.42,3.06l-4.91,8.8ZM589,434.7a4,4,0,0,0,3.06-1.24,5.11,5.11,0,0,0,0-6.53,4.42,4.42,0,0,0-6.12,0,5.11,5.11,0,0,0,0,6.53A4,4,0,0,0,589,434.7Z" transform="translate(0 0)"/><path class="cls-20" d="M603.48,444.86l5.69-9.78-.11-.09a3.73,3.73,0,0,1-1.48,1.25,5,5,0,0,1-2.21.46,5.67,5.67,0,0,1-3-.81,5.55,5.55,0,0,1-2-2.27,7.2,7.2,0,0,1-.74-3.36,7.39,7.39,0,0,1,.85-3.62,6,6,0,0,1,2.4-2.41,7.2,7.2,0,0,1,3.57-.85,7.35,7.35,0,0,1,3.61.85,6,6,0,0,1,2.41,2.37,7.08,7.08,0,0,1,.86,3.54,8.47,8.47,0,0,1-.53,2.86,18.77,18.77,0,0,1-1.42,3.06l-4.9,8.8Zm2.91-10.16a4,4,0,0,0,3.06-1.24,5.14,5.14,0,0,0,0-6.53,4.43,4.43,0,0,0-6.13,0,5.14,5.14,0,0,0,0,6.53A4,4,0,0,0,606.39,434.7Z" transform="translate(0 0)"/><path class="cls-20" d="M536.71,488.11a6.34,6.34,0,0,1-4.65-1.69,6.07,6.07,0,0,1-1.73-4.55v-9.29a6.05,6.05,0,0,1,1.73-4.54,7.22,7.22,0,0,1,9.31,0,6.05,6.05,0,0,1,1.73,4.54v9.29a6.71,6.71,0,0,1-.78,3.3,5.54,5.54,0,0,1-2.22,2.18A7.13,7.13,0,0,1,536.71,488.11Zm0-2.23a3.68,3.68,0,0,0,2.81-1.12,4.05,4.05,0,0,0,1.06-2.89v-9.29a4,4,0,0,0-1.06-2.88,4.07,4.07,0,0,0-5.61,0,4,4,0,0,0-1.06,2.88v9.29a4.05,4.05,0,0,0,1.06,2.89A3.67,3.67,0,0,0,536.71,485.88Zm0-6.94a1.67,1.67,0,0,1-1.26-.49,1.81,1.81,0,0,1-.48-1.31,1.75,1.75,0,1,1,3.49,0,1.81,1.81,0,0,1-.48,1.31A1.68,1.68,0,0,1,536.71,478.94Z" transform="translate(0 0)"/><path class="cls-20" d="M546.88,487.82l5.66-8.21-5.32-7.75h3.08l3.16,4.93c.14.22.27.45.4.7l.3.61a5.68,5.68,0,0,1,.28-.61,6.68,6.68,0,0,1,.39-.7l3.19-4.93h3.05l-5.31,7.78,5.63,8.18h-3.08l-3.42-5.22a4.63,4.63,0,0,1-.39-.74c-.13-.28-.24-.51-.34-.68l-.33.68a6.86,6.86,0,0,1-.45.74l-3.46,5.22Z" transform="translate(0 0)"/><path class="cls-20" d="M571.55,488.11a8.37,8.37,0,0,1-3.57-.71,5.55,5.55,0,0,1-2.38-2,5.13,5.13,0,0,1-.84-2.92,5.53,5.53,0,0,1,1.14-3.35,7.76,7.76,0,0,1,3.07-2.43,7.23,7.23,0,0,1-2.82-2.22,4.64,4.64,0,0,1-.93-2.77,4.89,4.89,0,0,1,.83-2.81A5.56,5.56,0,0,1,568.3,467a7.22,7.22,0,0,1,3.25-.7,7.34,7.34,0,0,1,3.27.7,5.56,5.56,0,0,1,2.25,1.92,5,5,0,0,1,.81,2.81,4.65,4.65,0,0,1-.93,2.75,7.55,7.55,0,0,1-2.82,2.24,7.76,7.76,0,0,1,3.07,2.43,5.53,5.53,0,0,1,1.14,3.35,5.13,5.13,0,0,1-.84,2.92,5.61,5.61,0,0,1-2.36,2A8.37,8.37,0,0,1,571.55,488.11Zm0-2.32a4.55,4.55,0,0,0,3.08-1,3.31,3.31,0,0,0,1.16-2.63,3.7,3.7,0,0,0-.78-2.3,5,5,0,0,0-2.21-1.59l-1.25-.49-1.33.52a4.79,4.79,0,0,0-2.15,1.58,3.74,3.74,0,0,0-.76,2.28,3.31,3.31,0,0,0,1.16,2.63A4.55,4.55,0,0,0,571.55,485.79Zm-.84-10.36.84.32.73-.29a5.39,5.39,0,0,0,2.2-1.5,3.21,3.21,0,0,0,.85-2.13,2.88,2.88,0,0,0-1.05-2.31,4.09,4.09,0,0,0-2.73-.88,4,4,0,0,0-2.73.9,2.87,2.87,0,0,0-1,2.29,3.26,3.26,0,0,0,.81,2.15A5.05,5.05,0,0,0,570.71,475.43Z" transform="translate(0 0)"/><path class="cls-20" d="M583,487.82V466.63H595.5V469h-9.93v7h9.18v2.38h-9.12v9.4Z" transform="translate(0 0)"/><path class="cls-20" d="M600.58,487.82V466.63h12.19V469h-9.61v6.56h8.6v2.35h-8.6v7.52h9.61v2.38Z" transform="translate(0 0)"/><line class="cls-21" x1="623.44" y1="326.72" x2="623.44" y2="499.64"/><path class="cls-20" d="M645.37,359.51a5.33,5.33,0,0,1-4.25-1.65,5.1,5.1,0,0,1-1-4.36h2.29a3.51,3.51,0,0,0,.6,2.91,3.37,3.37,0,0,0,2.71,1,4.44,4.44,0,0,0,3.06-1.07,4.8,4.8,0,0,0,1.5-2.88l.26-1.62A3.49,3.49,0,0,0,650,349a3.37,3.37,0,0,0-2.73-1h-2.06l.29-2,6.12-5.84h-8.5l.32-2.09h11.06l-.35,2.15-6,5.75a5,5,0,0,1,3.85,1.74,5.22,5.22,0,0,1,.85,4.21l-.26,1.62a6.77,6.77,0,0,1-1.26,3.15,7,7,0,0,1-2.53,2.11A7.59,7.59,0,0,1,645.37,359.51Z" transform="translate(0 0)"/><path class="cls-20" d="M640.75,383.61l-2.68,6.5H635.5l3.72-6.5Z" transform="translate(0 0)"/><path class="cls-20" d="M645.49,400a3,3,0,0,1-2.57-1.14,4,4,0,0,1-.52-3.1l.54-3.41a5.24,5.24,0,0,1,1.51-3.12,4.12,4.12,0,0,1,2.94-1.14,3,3,0,0,1,2,.59,2.19,2.19,0,0,1,.8,1.64h0l.31-2h1.65l-1.82,11.5h-1.65l.31-2h0a3.12,3.12,0,0,1-1.3,1.64A4,4,0,0,1,645.49,400Zm.75-1.44a2.91,2.91,0,0,0,2.06-.77,3.48,3.48,0,0,0,1-2.12l.5-3.26a2.71,2.71,0,0,0-.37-2.12,2.09,2.09,0,0,0-1.8-.76,2.93,2.93,0,0,0-2.07.75,3.47,3.47,0,0,0-1,2.13l-.5,3.26a2.78,2.78,0,0,0,.36,2.14A2.11,2.11,0,0,0,646.24,398.58Z" transform="translate(0 0)"/><path class="cls-20" d="M657.34,390.09l2.68-6.5h2.57l-3.72,6.5Z" transform="translate(0 0)"/><path class="cls-20" d="M642.61,441.36l-1.68-1.3,2.12-2.47a12.23,12.23,0,0,1,1.64-1.58l1.52-1.21-.05-.26c-.49-.06-1.06-.13-1.72-.23a9.74,9.74,0,0,1-1.91-.49l-2.64-1,1.13-2.18,2.64,1a8,8,0,0,1,1.74.9,14,14,0,0,1,1.34,1l.2-.15c0-.48-.08-1.08-.12-1.79a10.23,10.23,0,0,1,.12-2.13l.46-3h2.3l-.47,3a10.8,10.8,0,0,1-.56,2.13c-.26.71-.5,1.31-.71,1.79l.14.15c.45-.29,1-.62,1.64-1a11.39,11.39,0,0,1,2-.9l3-1,.46,2.15-3,1.05a11.42,11.42,0,0,1-2,.49c-.69.1-1.28.16-1.79.2l-.17.29c.35.33.73.73,1.16,1.21a7.69,7.69,0,0,1,1.1,1.58l1.37,2.47-2.09,1.3-1.34-2.46a8.24,8.24,0,0,1-.75-1.86,15.4,15.4,0,0,1-.38-1.69H647c-.25.49-.57,1.05-1,1.69a15.48,15.48,0,0,1-1.33,1.86Z" transform="translate(0 0)"/><path class="cls-20" d="M633.65,483.42a1.91,1.91,0,0,1-1.52-.55,1.8,1.8,0,0,1-.32-1.56l.8-5.1h-2.36l.17-1.09h2.36l.36-2.27h1.21l-.37,2.27h3.34l-.17,1.09H633.8l-.8,5.1c-.11.68.16,1,.82,1H636l-.16,1.09Z" transform="translate(0 0)"/><path class="cls-20" d="M639,483.42l1.31-8.3h1.18l-.24,1.46h0a2.47,2.47,0,0,1,2.48-1.61,2.33,2.33,0,0,1,2,.82,2.82,2.82,0,0,1,.43,2.21l-.1.5h-1.22l.08-.41a2,2,0,0,0-.25-1.56,1.55,1.55,0,0,0-1.32-.55,2.14,2.14,0,0,0-1.51.56,2.63,2.63,0,0,0-.77,1.55l-.83,5.33Z" transform="translate(0 0)"/><path class="cls-20" d="M650.81,483.57a2.56,2.56,0,0,1-2.1-.84,2.82,2.82,0,0,1-.46-2.3l.83-5.31h1.19l-.83,5.31a2,2,0,0,0,.26,1.53,1.5,1.5,0,0,0,1.3.56,2.1,2.1,0,0,0,1.48-.56,2.6,2.6,0,0,0,.77-1.53l.83-5.31h1.19l-.83,5.31a3.88,3.88,0,0,1-.65,1.67,3.4,3.4,0,0,1-1.26,1.09A3.85,3.85,0,0,1,650.81,483.57Z" transform="translate(0 0)"/><path class="cls-20" d="M659.89,483.57a2.6,2.6,0,0,1-2.15-.85,2.74,2.74,0,0,1-.48-2.27l.36-2.36a3.7,3.7,0,0,1,1.21-2.27,3.55,3.55,0,0,1,2.43-.85,2.61,2.61,0,0,1,2.15.85,2.74,2.74,0,0,1,.48,2.27l-.23,1.47h-5.09l-.13.89a2,2,0,0,0,.24,1.56,1.59,1.59,0,0,0,1.37.55,2,2,0,0,0,2.1-1.24h1.19A2.89,2.89,0,0,1,662.1,483,4,4,0,0,1,659.89,483.57Zm-1.17-4.95h3.91l.08-.53a2,2,0,0,0-.24-1.56,1.58,1.58,0,0,0-1.36-.55,2.2,2.2,0,0,0-1.56.55,2.67,2.67,0,0,0-.75,1.56Z" transform="translate(0 0)"/><rect class="cls-22" x="542.44" y="511.01" width="10.63" height="10.63"/><rect class="cls-22" x="554.22" y="524.16" width="10.63" height="16.74"/><circle class="cls-22" cx="547.76" cy="532.53" r="15.06"/><polyline class="cls-22" points="547.76 521.96 547.76 532.86 554.87 532.86"/><polygon class="cls-23" points="580.3 519.61 591.05 514.35 602.4 520.21 607.29 531.49 612.93 520.59 622.17 528.25 627.36 520.91 636.39 529.23 643.68 517.8 655.63 529.23 659.09 526 659.09 546.55 580.3 546.55 580.3 519.61"/><polyline class="cls-24" points="578.54 512.15 578.54 548.74 658.69 548.74"/><line class="cls-25" x1="93.4" y1="116.95" x2="93.4" y2="99.6"/><line class="cls-25" x1="112.36" y1="116.95" x2="112.36" y2="99.6"/><line class="cls-25" x1="169.25" y1="116.95" x2="169.25" y2="99.6"/><line class="cls-25" x1="150.29" y1="116.95" x2="150.29" y2="99.6"/><line class="cls-25" x1="131.33" y1="116.95" x2="131.33" y2="99.6"/><line class="cls-25" x1="188.21" y1="116.95" x2="188.21" y2="99.6"/><line class="cls-25" x1="93.4" y1="234.87" x2="93.4" y2="217.52"/><line class="cls-25" x1="112.36" y1="234.87" x2="112.36" y2="217.52"/><line class="cls-25" x1="169.25" y1="234.87" x2="169.25" y2="217.52"/><line class="cls-25" x1="150.29" y1="234.87" x2="150.29" y2="217.52"/><line class="cls-25" x1="131.33" y1="234.87" x2="131.33" y2="217.52"/><line class="cls-25" x1="188.21" y1="234.87" x2="188.21" y2="217.52"/><line class="cls-25" x1="220" y1="204.65" x2="202.65" y2="204.65"/><line class="cls-25" x1="220" y1="147.76" x2="202.65" y2="147.76"/><line class="cls-25" x1="220" y1="166.72" x2="202.65" y2="166.72"/><line class="cls-25" x1="220" y1="185.69" x2="202.65" y2="185.69"/><line class="cls-25" x1="220" y1="128.8" x2="202.65" y2="128.8"/><line class="cls-25" x1="80.86" y1="204.65" x2="63.51" y2="204.65"/><line class="cls-25" x1="80.86" y1="147.76" x2="63.51" y2="147.76"/><line class="cls-25" x1="80.86" y1="166.72" x2="63.51" y2="166.72"/><line class="cls-25" x1="80.86" y1="185.69" x2="63.51" y2="185.69"/><line class="cls-25" x1="80.86" y1="128.8" x2="63.51" y2="128.8"/><rect class="cls-26" x="82.67" y="117.03" width="118.16" height="96.86"/><circle class="cls-27" cx="96.24" cy="131.47" r="5.36"/><rect class="cls-28" x="740.12" y="306.29" width="52.81" height="47.18"/><rect class="cls-28" x="740.12" y="447.83" width="52.81" height="47.18"/><rect class="cls-28" x="740.12" y="400.65" width="52.81" height="47.18"/><rect class="cls-28" x="740.12" y="353.47" width="52.81" height="47.18"/><path class="cls-29" d="M810.23,339.05a6.19,6.19,0,0,1-4.57-1.68,6.09,6.09,0,0,1-1.69-4.52v-9.23a6.09,6.09,0,0,1,1.69-4.52,7.06,7.06,0,0,1,9.14,0,6.09,6.09,0,0,1,1.69,4.52v9.23a6.11,6.11,0,0,1-1.69,4.51A6.21,6.21,0,0,1,810.23,339.05Zm0-2a3.82,3.82,0,0,0,2.9-1.15,4.26,4.26,0,0,0,1.08-3v-9.23a4.22,4.22,0,0,0-1.08-3,4.21,4.21,0,0,0-5.8,0,4.22,4.22,0,0,0-1.08,3v9.23a4.26,4.26,0,0,0,1.08,3A3.82,3.82,0,0,0,810.23,337Zm0-7.18a1.57,1.57,0,0,1-1.2-.48,1.72,1.72,0,0,1-.44-1.22A1.66,1.66,0,0,1,809,327a1.86,1.86,0,0,1,2.4,0,1.66,1.66,0,0,1,.44,1.2,1.72,1.72,0,0,1-.44,1.22A1.57,1.57,0,0,1,810.23,329.85Z" transform="translate(0 0)"/><path class="cls-29" d="M804.26,386.39v-2.08H810v-17l-5.71,4.23V369l4.9-3.64h3.09v19h4.75v2.08Z" transform="translate(0 0)"/><path class="cls-29" d="M804.26,434v-2.28l6.49-6.89a16.7,16.7,0,0,0,2.54-3.28,6.06,6.06,0,0,0,.8-2.86,4,4,0,0,0-1.05-2.92,3.79,3.79,0,0,0-2.87-1.09,4.1,4.1,0,0,0-3,1.1,4,4,0,0,0-1.11,3h-2.31a6.07,6.07,0,0,1,1.8-4.46,6.48,6.48,0,0,1,4.63-1.65,6.25,6.25,0,0,1,4.53,1.61,5.83,5.83,0,0,1,1.67,4.38,7.62,7.62,0,0,1-1,3.63,19.26,19.26,0,0,1-3.14,4.07l-5.39,5.56h9.91V434Z" transform="translate(0 0)"/><path class="cls-29" d="M809.91,481.94a6.74,6.74,0,0,1-3.24-.75,5.37,5.37,0,0,1-2.16-2.09,6.21,6.21,0,0,1-.77-3.13h2.31a3.9,3.9,0,0,0,1,2.88,4.42,4.42,0,0,0,5.72,0,4,4,0,0,0,1-2.86v-1.61a3.56,3.56,0,0,0-3.89-3.9h-2.07v-2l5.18-5.8h-8.47v-2.07h11v2.13l-5.19,5.68a6.09,6.09,0,0,1,4.21,1.73,5.75,5.75,0,0,1,1.56,4.21V476a6.11,6.11,0,0,1-.78,3.13,5.42,5.42,0,0,1-2.18,2.09A6.8,6.8,0,0,1,809.91,481.94Z" transform="translate(0 0)"/><path class="cls-30" d="M663.37,143.5a6.9,6.9,0,0,1-4.29-1.28,5.08,5.08,0,0,1-2-3.56h-.05v4.42h-3.78V112.37h3.78v6.73l-.08,5.26h.13a5.12,5.12,0,0,1,2-3.54,6.79,6.79,0,0,1,4.29-1.3,7.2,7.2,0,0,1,5.6,2.31,9.06,9.06,0,0,1,2.1,6.31v6.78a9,9,0,0,1-2.1,6.27A7.2,7.2,0,0,1,663.37,143.5Zm-1.26-3.28a5.06,5.06,0,0,0,3.79-1.43,5.73,5.73,0,0,0,1.39-4.13v-6.31a5.7,5.7,0,0,0-1.39-4.12,5.06,5.06,0,0,0-3.79-1.43,4.78,4.78,0,0,0-3.68,1.47,5.77,5.77,0,0,0-1.37,4.08v6.31a5.81,5.81,0,0,0,1.37,4.09A4.78,4.78,0,0,0,662.11,140.22Z" transform="translate(0 0)"/><path class="cls-30" d="M687.23,143.5a8.24,8.24,0,0,1-8.8-8.84V119.94h3.79v14.72a5.72,5.72,0,0,0,1.35,4.06,4.72,4.72,0,0,0,3.66,1.46,4.86,4.86,0,0,0,3.72-1.46,5.68,5.68,0,0,0,1.37-4.06V119.94h3.78v14.72a8.59,8.59,0,0,1-2.44,6.46A8.79,8.79,0,0,1,687.23,143.5Z" transform="translate(0 0)"/><path class="cls-30" d="M709.15,143.08V125.7h-6.74v-3.45h6.74v-4a5.57,5.57,0,0,1,1.72-4.32,6.77,6.77,0,0,1,4.75-1.57h6.78v3.45h-6.78c-1.79,0-2.69.81-2.69,2.44v4h9.47v3.45h-9.47v17.38Z" transform="translate(0 0)"/><path class="cls-20" d="M733.76,147.71V108.16h10.3v3.37h-6.52v32.81h6.52v3.37Z" transform="translate(0 0)"/><path class="cls-31" d="M763,143.5a12.17,12.17,0,0,1-5.17-1,8.1,8.1,0,0,1-3.45-2.86,7.47,7.47,0,0,1-1.22-4.23,8,8,0,0,1,1.66-4.86,11.11,11.11,0,0,1,4.44-3.51,10.76,10.76,0,0,1-4.08-3.22,6.75,6.75,0,0,1-1.35-4,7.1,7.1,0,0,1,1.2-4.08,8.29,8.29,0,0,1,3.26-2.78,10.65,10.65,0,0,1,4.71-1,10.78,10.78,0,0,1,4.74,1,8.09,8.09,0,0,1,3.26,2.78,7.24,7.24,0,0,1,1.18,4.08,6.7,6.7,0,0,1-1.35,4,11.12,11.12,0,0,1-4.08,3.26,11.11,11.11,0,0,1,4.44,3.51,8.07,8.07,0,0,1,1.66,4.86,7.47,7.47,0,0,1-1.22,4.23,8.22,8.22,0,0,1-3.43,2.86A12.12,12.12,0,0,1,763,143.5Zm0-3.37a6.58,6.58,0,0,0,4.46-1.45,4.76,4.76,0,0,0,1.69-3.81,5.38,5.38,0,0,0-1.14-3.34,7.07,7.07,0,0,0-3.2-2.29l-1.81-.72-1.93.76a6.81,6.81,0,0,0-3.11,2.29,5.48,5.48,0,0,0-1.1,3.3,4.76,4.76,0,0,0,1.69,3.81A6.55,6.55,0,0,0,763,140.13Zm-1.22-15,1.22.47,1.06-.42a7.9,7.9,0,0,0,3.19-2.17,4.59,4.59,0,0,0,1.22-3.09,4.18,4.18,0,0,0-1.51-3.35,6.71,6.71,0,0,0-7.91,0,4.2,4.2,0,0,0-1.51,3.33A4.71,4.71,0,0,0,758.7,123,7.27,7.27,0,0,0,761.77,125.11Z" transform="translate(0 0)"/><path class="cls-31" d="M788.24,143.5a9.22,9.22,0,0,1-6.76-2.46,8.86,8.86,0,0,1-2.5-6.59V121a8.83,8.83,0,0,1,2.5-6.58,10.5,10.5,0,0,1,13.51,0,8.8,8.8,0,0,1,2.5,6.58v13.46a9.74,9.74,0,0,1-1.13,4.78,7.82,7.82,0,0,1-3.22,3.15A10.16,10.16,0,0,1,788.24,143.5Zm0-3.24a5.35,5.35,0,0,0,4.06-1.62,5.84,5.84,0,0,0,1.53-4.19V121a5.84,5.84,0,0,0-1.53-4.18,5.9,5.9,0,0,0-8.12,0,5.8,5.8,0,0,0-1.54,4.18v13.46a5.81,5.81,0,0,0,1.54,4.19A5.32,5.32,0,0,0,788.24,140.26Zm0-10.06a2.41,2.41,0,0,1-1.83-.71,2.58,2.58,0,0,1-.7-1.89,2.4,2.4,0,0,1,2.53-2.53,2.39,2.39,0,0,1,2.52,2.53,2.62,2.62,0,0,1-.69,1.89A2.44,2.44,0,0,1,788.24,130.2Z" transform="translate(0 0)"/><path class="cls-20" d="M807.17,147.71v-3.37h6.52V111.53h-6.52v-3.37h10.3v39.55Z" transform="translate(0 0)"/></g></svg>